<svg width="15" height="15" viewBox="0 0 15 15" fill="none" xmlns="http://www.w3.org/2000/svg">
<path d="M12.3186 4.4818C12.3351 4.47218 12.3488 4.4584 12.3583 4.44184C12.3678 4.42529 12.3728 4.40652 12.3728 4.38743C12.3728 4.36833 12.3678 4.34957 12.3583 4.33301C12.3488 4.31645 12.3351 4.30267 12.3186 4.29305L8.14641 1.86904C7.87945 1.7143 7.57636 1.63281 7.26779 1.63281C6.95923 1.63281 6.65614 1.7143 6.38918 1.86904L2.21778 4.29305C2.20128 4.30267 2.1876 4.31645 2.17809 4.33301C2.16858 4.34957 2.16357 4.36833 2.16357 4.38743C2.16357 4.40652 2.16858 4.42529 2.17809 4.44184C2.1876 4.4584 2.20128 4.47218 2.21778 4.4818L7.2133 7.42044C7.2301 7.43034 7.24925 7.43556 7.26875 7.43556C7.28825 7.43556 7.3074 7.43034 7.3242 7.42044L12.3186 4.4818Z" fill="white"/>
<path d="M1.74983 5.22558C1.73317 5.21596 1.71427 5.21091 1.69503 5.21094C1.67579 5.21097 1.65689 5.21608 1.64026 5.22575C1.62363 5.23543 1.60985 5.24932 1.60031 5.26603C1.59077 5.28274 1.58581 5.30167 1.58594 5.32091V10.0709C1.58635 10.2998 1.64668 10.5246 1.76093 10.7229C1.87518 10.9213 2.03936 11.0863 2.23715 11.2015L6.66669 13.8574C6.68329 13.867 6.70212 13.872 6.72129 13.872C6.74046 13.872 6.7593 13.867 6.7759 13.8574C6.79251 13.8478 6.8063 13.8341 6.8159 13.8175C6.8255 13.8009 6.83056 13.782 6.83058 13.7629V8.2519C6.83056 8.23274 6.8255 8.21392 6.81592 8.19733C6.80633 8.18074 6.79254 8.16697 6.77595 8.15739L1.74983 5.22558Z" fill="white"/>
<path d="M7.70459 8.26993V13.7604C7.70461 13.7796 7.70967 13.7984 7.71927 13.815C7.72887 13.8316 7.74266 13.8454 7.75927 13.855C7.77588 13.8645 7.79471 13.8696 7.81388 13.8696C7.83305 13.8696 7.85188 13.8645 7.86848 13.8549L12.2977 11.199C12.4954 11.0839 12.6595 10.9192 12.7738 10.7211C12.8881 10.523 12.9486 10.2985 12.9492 10.0698V5.31982C12.9492 5.30067 12.9441 5.28188 12.9344 5.26532C12.9248 5.24876 12.911 5.23502 12.8944 5.22548C12.8778 5.21594 12.859 5.21092 12.8399 5.21094C12.8207 5.21095 12.8019 5.216 12.7853 5.22558L7.75922 8.17569C7.74267 8.18524 7.72891 8.19898 7.71932 8.21551C7.70974 8.23205 7.70466 8.25081 7.70459 8.26993V8.26993Z" fill="white"/>
</svg>
