<svg width="15" height="15" viewBox="0 0 15 15" fill="none" xmlns="http://www.w3.org/2000/svg">
<path d="M9.50418 2.52276C8.97262 1.94886 8.23017 1.63281 7.4107 1.63281C6.58685 1.63281 5.84195 1.94694 5.31284 2.5173C4.778 3.09394 4.5174 3.87763 4.57859 4.72387C4.69987 6.39342 5.97033 7.75156 7.4107 7.75156C8.85106 7.75156 10.1193 6.39369 10.2425 4.72442C10.3045 3.88582 10.0423 3.10377 9.50418 2.52276Z" fill="white"/>
<path d="M12.2184 13.8696H2.60327C2.47741 13.8713 2.35278 13.8448 2.23843 13.7922C2.12408 13.7397 2.02289 13.6622 1.94222 13.5656C1.76467 13.3534 1.6931 13.0636 1.7461 12.7705C1.97664 11.4915 2.69614 10.4172 3.82702 9.663C4.83169 8.99349 6.10434 8.625 7.41085 8.625C8.71737 8.625 9.99002 8.99376 10.9947 9.663C12.1256 10.4169 12.8451 11.4913 13.0756 12.7702C13.1286 13.0633 13.057 13.3531 12.8795 13.5653C12.7988 13.662 12.6977 13.7395 12.5833 13.7921C12.469 13.8448 12.3443 13.8712 12.2184 13.8696V13.8696Z" fill="white"/>
</svg>
