<svg width="14" height="18" viewBox="0 0 14 18" fill="none" xmlns="http://www.w3.org/2000/svg">
<path d="M8.04163 9.2085H5.95829C4.5217 9.2085 3.14395 9.77918 2.12813 10.795C1.11231 11.8108 0.541626 13.1886 0.541626 14.6252C0.541626 15.5092 0.892815 16.3571 1.51794 16.9822C2.14306 17.6073 2.9909 17.9585 3.87496 17.9585H10.125C11.009 17.9585 11.8569 17.6073 12.482 16.9822C13.1071 16.3571 13.4583 15.5092 13.4583 14.6252C13.4583 13.1886 12.8876 11.8108 11.8718 10.795C10.856 9.77918 9.47822 9.2085 8.04163 9.2085Z" fill="#848484" fill-opacity="0.22"/>
<path d="M6.99998 9.00008C9.30117 9.00008 11.1666 7.1346 11.1666 4.83341C11.1666 2.53223 9.30117 0.666748 6.99998 0.666748C4.69879 0.666748 2.83331 2.53223 2.83331 4.83341C2.83331 7.1346 4.69879 9.00008 6.99998 9.00008Z" fill="#848484" fill-opacity="0.22"/>
<path d="M10.3333 17.9583H3.66666C2.83815 17.9574 2.04386 17.6278 1.45802 17.042C0.872183 16.4561 0.54263 15.6618 0.541656 14.8333V14C0.538535 13.0395 0.78277 12.0944 1.25084 11.2556C1.71892 10.4169 2.39506 9.71282 3.21416 9.21118C3.3552 9.12426 3.52497 9.09687 3.68619 9.13502C3.84741 9.17318 3.9869 9.27376 4.07402 9.41468C4.16114 9.5556 4.18876 9.72534 4.15083 9.88661C4.1129 10.0479 4.01251 10.1875 3.87171 10.2748C3.23422 10.6648 2.70794 11.2124 2.34361 11.8649C1.97928 12.5174 1.78919 13.2527 1.79166 14V14.8333C1.79227 15.3304 1.99001 15.807 2.34151 16.1585C2.69301 16.51 3.16956 16.7077 3.66666 16.7083H10.3333C10.8304 16.7077 11.307 16.51 11.6585 16.1585C12.01 15.807 12.2077 15.3304 12.2083 14.8333V14C12.207 12.8401 11.7456 11.7281 10.9254 10.9079C10.1053 10.0877 8.99323 9.62633 7.83332 9.625H6.99999C6.83423 9.625 6.67526 9.55915 6.55805 9.44194C6.44084 9.32473 6.37499 9.16576 6.37499 9C6.37499 8.83424 6.44084 8.67527 6.55805 8.55806C6.67526 8.44085 6.83423 8.375 6.99999 8.375H7.83332C9.32464 8.3767 10.7544 8.96987 11.8089 10.0244C12.8634 11.0789 13.4566 12.5087 13.4583 14V14.8333C13.4573 15.6618 13.1278 16.4561 12.542 17.042C11.9561 17.6278 11.1618 17.9574 10.3333 17.9583Z" fill="#848484"/>
<path d="M6.99998 9.62508C6.05228 9.62508 5.12586 9.34406 4.33787 8.81754C3.54989 8.29103 2.93573 7.54267 2.57306 6.66711C2.21039 5.79155 2.1155 4.8281 2.30039 3.89861C2.48527 2.96912 2.94164 2.11532 3.61176 1.4452C4.28189 0.77507 5.13568 0.318708 6.06517 0.133821C6.99467 -0.0510668 7.95811 0.0438242 8.83367 0.406494C9.70924 0.769164 10.4576 1.38332 10.9841 2.17131C11.5106 2.9593 11.7916 3.88571 11.7916 4.83342C11.7902 6.10381 11.285 7.32177 10.3866 8.22008C9.48834 9.11839 8.27038 9.62367 6.99998 9.62508ZM6.99998 1.29175C6.29951 1.29175 5.61476 1.49947 5.03234 1.88863C4.44991 2.27779 3.99597 2.83092 3.72791 3.47808C3.45985 4.12523 3.38971 4.83735 3.52637 5.52436C3.66302 6.21138 4.00033 6.84244 4.49565 7.33775C4.99096 7.83307 5.62202 8.17038 6.30904 8.30703C6.99605 8.44369 7.70816 8.37355 8.35532 8.10549C9.00247 7.83743 9.55561 7.38349 9.94477 6.80106C10.3339 6.21864 10.5416 5.53389 10.5416 4.83342C10.5406 3.89443 10.1671 2.9942 9.50316 2.33024C8.8392 1.66627 7.93897 1.2928 6.99998 1.29175Z" fill="#848484"/>
</svg>
