<svg width="20" height="20" viewBox="0 0 20 20" fill="none" xmlns="http://www.w3.org/2000/svg">
<path d="M14.375 14.375C14.8723 14.375 15.3492 14.1774 15.7008 13.8258C16.0524 13.4742 16.25 12.9973 16.25 12.5V4.37499C16.4552 4.35447 16.6543 4.29373 16.836 4.19625C17.0178 4.09877 17.1785 3.96645 17.3091 3.80685C17.4397 3.64725 17.5375 3.4635 17.5971 3.26607C17.6567 3.06865 17.6768 2.86143 17.6562 2.65624C17.6357 2.45105 17.575 2.25191 17.4775 2.07019C17.38 1.88847 17.2477 1.72773 17.0881 1.59715C16.9285 1.46656 16.7447 1.3687 16.5473 1.30913C16.3499 1.24956 16.1427 1.22947 15.9375 1.24999H4.06249C3.64808 1.20855 3.23419 1.33342 2.91187 1.59715C2.58954 1.86087 2.38518 2.24183 2.34374 2.65624C2.3023 3.07064 2.42717 3.48453 2.6909 3.80685C2.95462 4.12918 3.33558 4.33355 3.74999 4.37499V12.5C3.74999 12.9973 3.94753 13.4742 4.29916 13.8258C4.65079 14.1774 5.1277 14.375 5.62499 14.375H9.37499V15.1562L5.45624 16.25C5.32105 16.2878 5.20252 16.37 5.11975 16.4834C5.03699 16.5968 4.9948 16.7347 4.99999 16.875V18.75H6.24999V17.3437L9.37499 16.4562V18.75H10.625V16.4562L13.75 17.3437V18.75H15V16.875C15.0052 16.7347 14.963 16.5968 14.8802 16.4834C14.7975 16.37 14.6789 16.2878 14.5437 16.25L10.625 15.1562V14.375H14.375ZM4.06249 2.49999H15.9375C16.0204 2.49999 16.0999 2.53291 16.1585 2.59151C16.2171 2.65012 16.25 2.72961 16.25 2.81249C16.25 2.89537 16.2171 2.97485 16.1585 3.03346C16.0999 3.09206 16.0204 3.12499 15.9375 3.12499H4.06249C3.97961 3.12499 3.90012 3.09206 3.84151 3.03346C3.78291 2.97485 3.74999 2.89537 3.74999 2.81249C3.74999 2.72961 3.78291 2.65012 3.84151 2.59151C3.90012 2.53291 3.97961 2.49999 4.06249 2.49999ZM4.99999 12.5V4.37499H15V12.5C15 12.6657 14.9341 12.8247 14.8169 12.9419C14.6997 13.0591 14.5407 13.125 14.375 13.125H5.62499C5.45923 13.125 5.30025 13.0591 5.18304 12.9419C5.06583 12.8247 4.99999 12.6657 4.99999 12.5Z" fill="#848484"/>
<path d="M11.1375 8.51255L9.12495 7.00005C8.99473 6.90311 8.8319 6.86065 8.67092 6.88165C8.50994 6.90265 8.36345 6.98545 8.26245 7.11255L5.76245 10.2375L6.73745 11.0188L8.86245 8.36255L10.875 9.87505C11.0044 9.97268 11.1668 10.0162 11.3277 9.99635C11.4886 9.97653 11.6356 9.89493 11.7375 9.7688L14.2375 6.6438L13.2625 5.86255L11.1375 8.51255Z" fill="#848484"/>
</svg>
