<svg width="14" height="14" viewBox="0 0 14 14" fill="none" xmlns="http://www.w3.org/2000/svg">
<g id="Frame">
<g id="Group">
<path id="Vector" d="M7.58789 1.16211H11.0879L11.6758 1.75V5.25C11.6758 5.41406 11.6188 5.55306 11.5049 5.66699C11.391 5.78092 11.252 5.83789 11.0879 5.83789C10.9238 5.83789 10.7848 5.78092 10.6709 5.66699C10.557 5.55306 10.5 5.41406 10.5 5.25V3.1582L5.08594 8.57227C4.96745 8.69076 4.82845 8.74772 4.66895 8.74316C4.50944 8.73861 4.375 8.68164 4.26562 8.57227C4.15625 8.46289 4.09928 8.32845 4.09473 8.16895C4.09017 8.00944 4.14714 7.87044 4.26562 7.75195L9.67969 2.33789H7.58789C7.42383 2.33789 7.28483 2.28092 7.1709 2.16699C7.05697 2.05306 7 1.91406 7 1.75C7 1.58594 7.05697 1.44694 7.1709 1.33301C7.28483 1.21908 7.42383 1.16211 7.58789 1.16211ZM11.0879 1.16211L11.6758 1.75V1.70898C11.6576 1.55404 11.5938 1.42415 11.4844 1.31934C11.375 1.21452 11.2428 1.16211 11.0879 1.16211ZM1.33984 4.25195C1.45833 4.14258 1.59505 4.08789 1.75 4.08789H5.25C5.41406 4.08789 5.55306 4.03092 5.66699 3.91699C5.78092 3.80306 5.83789 3.66406 5.83789 3.5C5.83789 3.33594 5.78092 3.19694 5.66699 3.08301C5.55306 2.96908 5.41406 2.91211 5.25 2.91211H1.75C1.4401 2.91211 1.15072 2.99186 0.881836 3.15137C0.612956 3.31087 0.398763 3.52507 0.239258 3.79395C0.0797526 4.06283 0 4.35221 0 4.66211V11.0879C0 11.3978 0.0797526 11.6872 0.239258 11.9561C0.398763 12.2249 0.612956 12.4391 0.881836 12.5986C1.15072 12.7581 1.4401 12.8379 1.75 12.8379H8.17578C8.48568 12.8379 8.77507 12.7581 9.04395 12.5986C9.31283 12.4391 9.52702 12.2249 9.68652 11.9561C9.84603 11.6872 9.92578 11.3978 9.92578 11.0879V7.58789C9.92578 7.42383 9.86882 7.28483 9.75488 7.1709C9.64095 7.05697 9.50195 7 9.33789 7C9.17383 7 9.03483 7.05697 8.9209 7.1709C8.80697 7.28483 8.75 7.42383 8.75 7.58789V11.0879C8.75 11.2428 8.69303 11.3773 8.5791 11.4912C8.46517 11.6051 8.33073 11.6621 8.17578 11.6621H1.75C1.59505 11.6621 1.46061 11.6051 1.34668 11.4912C1.23275 11.3773 1.17578 11.2428 1.17578 11.0879V4.66211C1.17578 4.50716 1.23047 4.37044 1.33984 4.25195Z" fill="white"/>
</g>
</g>
</svg>
