<svg width="172" height="40" viewBox="0 0 172 40" fill="none" xmlns="http://www.w3.org/2000/svg">
<path d="M51.9405 31V9.18182H60.6763C62.2814 9.18182 63.6202 9.41974 64.6926 9.8956C65.7651 10.3714 66.5712 11.032 67.111 11.8771C67.6507 12.7152 67.9206 13.6811 67.9206 14.7749C67.9206 15.6271 67.7502 16.3764 67.4092 17.0227C67.0683 17.6619 66.5996 18.1875 66.003 18.5994C65.4135 19.0043 64.7388 19.2919 63.9788 19.4624V19.6754C64.8098 19.7109 65.5875 19.9453 66.3119 20.3786C67.0435 20.8118 67.6365 21.419 68.0911 22.2003C68.5456 22.9744 68.7729 23.8977 68.7729 24.9702C68.7729 26.1278 68.4852 27.1612 67.91 28.0703C67.3418 28.9723 66.5002 29.6861 65.3851 30.2116C64.27 30.7372 62.8958 31 61.2622 31H51.9405ZM56.5534 27.2287H60.3141C61.5996 27.2287 62.5371 26.9837 63.1266 26.4936C63.7161 25.9964 64.0108 25.3359 64.0108 24.5121C64.0108 23.9084 63.8652 23.3757 63.574 22.9141C63.2828 22.4524 62.8673 22.0902 62.3276 21.8274C61.7949 21.5646 61.1592 21.4332 60.4206 21.4332H56.5534V27.2287ZM56.5534 18.3118H59.9732C60.6053 18.3118 61.1663 18.2017 61.6564 17.9815C62.1536 17.7543 62.5442 17.4347 62.8283 17.0227C63.1195 16.6108 63.2651 16.1172 63.2651 15.5419C63.2651 14.7536 62.9845 14.1179 62.4235 13.6349C61.8695 13.152 61.0811 12.9105 60.0584 12.9105H56.5534V18.3118ZM71.9893 31V14.6364H76.5276V31H71.9893ZM74.2691 12.527C73.5944 12.527 73.0155 12.3033 72.5326 11.8558C72.0567 11.4013 71.8188 10.858 71.8188 10.2259C71.8188 9.60085 72.0567 9.06463 72.5326 8.61719C73.0155 8.16264 73.5944 7.93537 74.2691 7.93537C74.9438 7.93537 75.5191 8.16264 75.9949 8.61719C76.4779 9.06463 76.7194 9.60085 76.7194 10.2259C76.7194 10.858 76.4779 11.4013 75.9949 11.8558C75.5191 12.3033 74.9438 12.527 74.2691 12.527ZM85.0014 21.5398V31H80.4631V14.6364H84.7884V17.5234H84.9801C85.3423 16.5717 85.9496 15.8189 86.8019 15.2649C87.6541 14.7038 88.6875 14.4233 89.902 14.4233C91.0384 14.4233 92.0291 14.6719 92.8743 15.169C93.7195 15.6662 94.3764 16.3764 94.8452 17.2997C95.3139 18.2159 95.5483 19.3097 95.5483 20.581V31H91.01V21.3906C91.0171 20.3892 90.7614 19.608 90.2429 19.0469C89.7244 18.4787 89.0107 18.1946 88.1016 18.1946C87.4908 18.1946 86.951 18.326 86.4823 18.5888C86.0206 18.8516 85.6584 19.2351 85.3956 19.7393C85.1399 20.2365 85.0085 20.8366 85.0014 21.5398ZM104.091 31.3089C103.047 31.3089 102.117 31.1278 101.3 30.7656C100.483 30.3963 99.8371 29.853 99.3613 29.1357C98.8925 28.4112 98.6581 27.5092 98.6581 26.4297C98.6581 25.5206 98.8251 24.7571 99.1589 24.1392C99.4927 23.5213 99.9472 23.0241 100.522 22.6477C101.098 22.2713 101.751 21.9872 102.483 21.7955C103.221 21.6037 103.996 21.4688 104.805 21.3906C105.757 21.2912 106.524 21.1989 107.106 21.1136C107.689 21.0213 108.111 20.8864 108.374 20.7088C108.637 20.5312 108.768 20.2685 108.768 19.9205V19.8565C108.768 19.1818 108.555 18.6598 108.129 18.2905C107.71 17.9212 107.113 17.7365 106.339 17.7365C105.522 17.7365 104.873 17.9176 104.39 18.2798C103.907 18.6349 103.587 19.0824 103.431 19.6222L99.2334 19.2812C99.4465 18.2869 99.8655 17.4276 100.491 16.7031C101.116 15.9716 101.922 15.4105 102.909 15.0199C103.903 14.6222 105.054 14.4233 106.361 14.4233C107.27 14.4233 108.14 14.5298 108.971 14.7429C109.809 14.956 110.551 15.2862 111.197 15.7337C111.851 16.1811 112.366 16.7564 112.742 17.4595C113.118 18.1555 113.307 18.9901 113.307 19.9631V31H109.003V28.7308H108.875C108.612 29.2422 108.26 29.6932 107.82 30.0838C107.38 30.4673 106.851 30.7692 106.233 30.9893C105.615 31.2024 104.901 31.3089 104.091 31.3089ZM105.391 28.1768C106.059 28.1768 106.648 28.0455 107.16 27.7827C107.671 27.5128 108.072 27.1506 108.363 26.696C108.655 26.2415 108.8 25.7266 108.8 25.1513V23.4148C108.658 23.5071 108.463 23.5923 108.214 23.6705C107.973 23.7415 107.699 23.8089 107.394 23.8729C107.089 23.9297 106.783 23.983 106.478 24.0327C106.172 24.0753 105.895 24.1143 105.647 24.1499C105.114 24.228 104.649 24.3523 104.251 24.5227C103.853 24.6932 103.545 24.924 103.324 25.2152C103.104 25.4993 102.994 25.8544 102.994 26.2805C102.994 26.8984 103.218 27.3707 103.665 27.6974C104.12 28.017 104.695 28.1768 105.391 28.1768ZM121.666 21.5398V31H117.128V14.6364H121.453V17.5234H121.645C122.007 16.5717 122.614 15.8189 123.466 15.2649C124.319 14.7038 125.352 14.4233 126.566 14.4233C127.703 14.4233 128.694 14.6719 129.539 15.169C130.384 15.6662 131.041 16.3764 131.51 17.2997C131.978 18.2159 132.213 19.3097 132.213 20.581V31H127.674V21.3906C127.682 20.3892 127.426 19.608 126.907 19.0469C126.389 18.4787 125.675 18.1946 124.766 18.1946C124.155 18.1946 123.615 18.326 123.147 18.5888C122.685 18.8516 122.323 19.2351 122.06 19.7393C121.804 20.2365 121.673 20.8366 121.666 21.5398ZM143.483 31.3196C141.807 31.3196 140.365 30.9645 139.158 30.2543C137.958 29.5369 137.034 28.5426 136.388 27.2713C135.749 26 135.429 24.5369 135.429 22.8821C135.429 21.206 135.752 19.7358 136.399 18.4716C137.052 17.2003 137.979 16.2095 139.179 15.4993C140.379 14.782 141.807 14.4233 143.462 14.4233C144.889 14.4233 146.139 14.6825 147.212 15.201C148.284 15.7195 149.133 16.4474 149.758 17.3849C150.383 18.3224 150.727 19.4233 150.791 20.6875H146.509C146.388 19.8707 146.068 19.2138 145.55 18.7166C145.039 18.2124 144.367 17.9602 143.536 17.9602C142.833 17.9602 142.219 18.152 141.693 18.5355C141.175 18.9119 140.77 19.4624 140.479 20.1868C140.188 20.9112 140.042 21.7884 140.042 22.8182C140.042 23.8622 140.184 24.75 140.468 25.4815C140.759 26.2131 141.168 26.7706 141.693 27.1541C142.219 27.5376 142.833 27.7294 143.536 27.7294C144.055 27.7294 144.52 27.6229 144.932 27.4098C145.351 27.1967 145.695 26.8878 145.965 26.483C146.242 26.071 146.423 25.5774 146.509 25.0021H150.791C150.72 26.2521 150.379 27.353 149.769 28.3047C149.165 29.2493 148.33 29.9879 147.265 30.5206C146.2 31.0533 144.939 31.3196 143.483 31.3196ZM161.454 31.3196C159.771 31.3196 158.322 30.9787 157.108 30.2969C155.9 29.608 154.97 28.6349 154.317 27.3778C153.663 26.1136 153.337 24.6186 153.337 22.8928C153.337 21.2095 153.663 19.7322 154.317 18.4609C154.97 17.1896 155.89 16.1989 157.076 15.4886C158.269 14.7784 159.668 14.4233 161.273 14.4233C162.353 14.4233 163.358 14.5973 164.288 14.9453C165.226 15.2862 166.043 15.8011 166.739 16.4901C167.442 17.179 167.989 18.0455 168.379 19.0895C168.77 20.1264 168.965 21.3409 168.965 22.733V23.9794H155.148V21.1669H164.693C164.693 20.5135 164.551 19.9347 164.267 19.4304C163.983 18.9261 163.589 18.532 163.084 18.2479C162.587 17.9567 162.008 17.8111 161.348 17.8111C160.659 17.8111 160.048 17.9709 159.516 18.2905C158.99 18.603 158.578 19.0256 158.28 19.5582C157.981 20.0838 157.829 20.6697 157.822 21.3161V23.9901C157.822 24.7997 157.971 25.4993 158.269 26.0888C158.574 26.6783 159.004 27.1328 159.558 27.4524C160.112 27.772 160.769 27.9318 161.529 27.9318C162.033 27.9318 162.495 27.8608 162.914 27.7188C163.333 27.5767 163.692 27.3636 163.99 27.0795C164.288 26.7955 164.516 26.4474 164.672 26.0355L168.869 26.3125C168.656 27.321 168.219 28.2017 167.559 28.9545C166.905 29.7003 166.06 30.2827 165.023 30.7017C163.994 31.1136 162.804 31.3196 161.454 31.3196Z" fill="white"/>
<path d="M13.7981 17.4465L20.018 11.2323L26.2411 17.4497L29.8603 13.8337L20.018 3.99983L10.1791 13.8305L13.7981 17.4465ZM4.00415 19.9993L7.62344 16.3832L11.2425 19.9991L7.62323 23.6152L4.00415 19.9993ZM13.7981 22.5531L20.018 28.7673L26.2409 22.5501L29.8621 26.1642L29.8603 26.1661L20.018 35.9998L10.1788 26.1694L10.1736 26.1643L13.7981 22.5531ZM28.7942 20.0013L32.4134 16.3852L36.0325 20.0011L32.4132 23.6172L28.7942 20.0013Z" fill="#FFB800"/>
<path d="M23.6894 19.999H23.6911L20.0185 16.3297L17.3045 19.0414L16.9925 19.3531L16.3494 19.9958L16.3442 20.0008L16.3494 20.006L20.0185 23.6721L23.6911 20.0029L23.6928 20.0008L23.6894 19.999Z" fill="#FFB800"/>
</svg>
