<svg width="18" height="18" viewBox="0 0 18 18" fill="none" xmlns="http://www.w3.org/2000/svg">
<path fill-rule="evenodd" clip-rule="evenodd" d="M12.9232 0C15.9597 0 18 2.13153 18 5.30374V12.6963C18 15.8685 15.9597 18 12.9232 18H5.07684C2.04028 18 0 15.8685 0 12.6963V5.30374C0 2.13153 2.04028 0 5.07684 0H12.9232ZM12.9232 1.25581H5.07684C2.75609 1.25581 1.25581 2.844 1.25581 5.30374V12.6963C1.25581 15.156 2.75609 16.7442 5.07684 16.7442H12.9232C15.2447 16.7442 16.7442 15.156 16.7442 12.6963V5.30374C16.7442 2.844 15.2447 1.25581 12.9232 1.25581ZM5.12464 6.86722C5.47125 6.86722 5.75255 7.14852 5.75255 7.49513V13.2384C5.75255 13.585 5.47125 13.8663 5.12464 13.8663C4.77804 13.8663 4.49674 13.585 4.49674 13.2384V7.49513C4.49674 7.14852 4.77804 6.86722 5.12464 6.86722ZM9.03189 4.11783C9.3785 4.11783 9.6598 4.39913 9.6598 4.74574V13.2375C9.6598 13.5841 9.3785 13.8654 9.03189 13.8654C8.68529 13.8654 8.40399 13.5841 8.40399 13.2375V4.74574C8.40399 4.39913 8.68529 4.11783 9.03189 4.11783ZM12.8749 9.9021C13.2215 9.9021 13.5028 10.1834 13.5028 10.53V13.2375C13.5028 13.5841 13.2215 13.8654 12.8749 13.8654C12.5283 13.8654 12.247 13.5841 12.247 13.2375V10.53C12.247 10.1834 12.5283 9.9021 12.8749 9.9021Z" fill="#848484"/>
</svg>
