<svg width="16" height="16" viewBox="0 0 16 16" fill="none" xmlns="http://www.w3.org/2000/svg">
<path fill-rule="evenodd" clip-rule="evenodd" d="M4.89835 0C6.06501 0 7 0.943727 7 2.10164V4.89918C7 6.06448 6.06501 7 4.89835 7H2.10165C0.943259 7 0 6.06448 0 4.89918V2.10164C0 0.943727 0.943259 0 2.10165 0H4.89835ZM7 11.1016C7 9.93634 6.06501 9 4.89835 9H2.10165C0.943259 9 0 9.93634 0 11.1016V13.8992C0 15.0563 0.943259 16 2.10165 16H4.89835C6.06501 16 7 15.0563 7 13.8992V11.1016ZM16 11.1016C16 9.93634 15.0567 9 13.8983 9H11.1017C9.93499 9 9 9.93634 9 11.1016V13.8992C9 15.0563 9.93499 16 11.1017 16H13.8983C15.0567 16 16 15.0563 16 13.8992V11.1016ZM16 2.10164C16 0.943727 15.0567 0 13.8983 0H11.1017C9.93499 0 9 0.943727 9 2.10164V4.89918C9 6.06448 9.93499 7 11.1017 7H13.8983C15.0567 7 16 6.06448 16 4.89918V2.10164Z" fill="#25DEB0"/>
</svg>
