<svg width="18" height="18" viewBox="0 0 18 18" fill="none" xmlns="http://www.w3.org/2000/svg">
<g id="noun-dollar-1011281 1">
<g id="Group">
<path id="Vector" fill-rule="evenodd" clip-rule="evenodd" d="M8.85012 14.2925C5.81165 14.2925 3.34863 11.8293 3.34863 8.79104C3.34863 5.75257 5.81185 3.28955 8.85012 3.28955C11.8886 3.28955 14.3516 5.75277 14.3516 8.79104C14.3517 11.8295 11.8886 14.2925 8.85012 14.2925ZM10.3634 11.0668C10.9125 10.5479 11.0644 9.59286 10.5256 9.02452C10.3063 8.79328 9.99996 8.63256 9.60651 8.54098C9.44502 8.50545 9.28729 8.45992 9.12442 8.42685V6.52562C9.65242 6.56799 10.1391 6.77731 10.5752 7.07124V6.18279C10.1469 6.00892 9.57214 5.90103 9.12442 5.88587V5.34832H8.61087V5.88587C8.08525 5.9354 7.66029 6.1142 7.33438 6.4235C6.78515 6.94243 6.65918 7.80134 7.12859 8.40872C7.41167 8.77269 7.91061 8.91635 8.34348 9.0214C8.44853 9.04539 8.5372 9.06654 8.61079 9.08445V10.9948C7.98812 10.9396 7.39444 10.7433 6.89004 10.3685V11.2862C7.40159 11.5231 8.05734 11.6381 8.61079 11.6433V12.2333H9.12434V11.6208C9.62297 11.5595 10.0359 11.3748 10.3634 11.0669L10.3634 11.0668ZM8.61081 8.33371V6.52559C8.34503 6.54959 8.12279 6.63526 7.94399 6.78237C7.60186 7.06175 7.58278 7.68919 7.87048 8.00327C8.00267 8.14438 8.24892 8.25558 8.61081 8.33371ZM9.81224 9.45547C9.67104 9.32328 9.44126 9.22277 9.12442 9.15217V10.9857C9.42025 10.9511 9.64405 10.8595 9.79723 10.7154C10.092 10.4323 10.115 9.73603 9.81223 9.45549L9.81224 9.45547Z" fill="#29C5A1"/>
</g>
</g>
</svg>
