<svg width="16" height="17" viewBox="0 0 16 17" fill="none" xmlns="http://www.w3.org/2000/svg">
<g id="Frame">
<g id="Group">
<path id="Vector" d="M1 8.5C1 7.32292 1.29167 6.22917 1.875 5.21875C2.45833 4.23958 3.23958 3.45833 4.21875 2.875C5.22917 2.29167 6.32292 2 7.5 2C8.67708 2 9.77083 2.29167 10.7812 2.875C11.7604 3.45833 12.5417 4.23958 13.125 5.21875C13.7083 6.22917 14 7.32292 14 8.5C14 9.67708 13.7083 10.7708 13.125 11.7812C12.5417 12.7604 11.7604 13.5417 10.7812 14.125C9.77083 14.7083 8.67708 15 7.5 15C6.32292 15 5.22917 14.7083 4.21875 14.125C3.23958 13.5417 2.45833 12.7604 1.875 11.7812C1.29167 10.7708 1 9.67708 1 8.5ZM7.5 1C6.14583 1 4.88542 1.34375 3.71875 2.03125C2.58333 2.6875 1.6875 3.58333 1.03125 4.71875C0.34375 5.88542 0 7.14583 0 8.5C0 9.85417 0.34375 11.1146 1.03125 12.2812C1.6875 13.4167 2.58333 14.3125 3.71875 14.9688C4.88542 15.6562 6.14583 16 7.5 16C8.85417 16 10.1146 15.6562 11.2812 14.9688C12.4167 14.3125 13.3125 13.4167 13.9688 12.2812C14.6562 11.1146 15 9.85417 15 8.5C15 7.14583 14.6562 5.88542 13.9688 4.71875C13.3125 3.58333 12.4167 2.6875 11.2812 2.03125C10.1146 1.34375 8.85417 1 7.5 1ZM7.85938 4.73438C7.84896 4.59896 7.79688 4.48698 7.70312 4.39844C7.60938 4.3099 7.49479 4.26562 7.35938 4.26562C7.22396 4.26562 7.10938 4.3099 7.01562 4.39844C6.92188 4.48698 6.86979 4.59896 6.85938 4.73438V5.26562H6.59375C6.27083 5.26562 5.97135 5.34635 5.69531 5.50781C5.41927 5.66927 5.20052 5.88542 5.03906 6.15625C4.8776 6.42708 4.79688 6.72396 4.79688 7.04688C4.79688 7.36979 4.8776 7.66927 5.03906 7.94531C5.20052 8.22135 5.41927 8.4401 5.69531 8.60156C5.97135 8.76302 6.27083 8.84375 6.59375 8.84375H8.125C8.34375 8.84375 8.53125 8.91927 8.6875 9.07031C8.84375 9.22135 8.92188 9.40625 8.92188 9.625C8.92188 9.84375 8.84375 10.0312 8.6875 10.1875C8.53125 10.3438 8.34375 10.4219 8.125 10.4219H5.8125C5.71875 10.4115 5.63281 10.4297 5.55469 10.4766C5.47656 10.5234 5.41406 10.5859 5.36719 10.6641C5.32031 10.7422 5.29688 10.8255 5.29688 10.9141C5.29688 11.0026 5.32031 11.0859 5.36719 11.1641C5.41406 11.2422 5.47656 11.3047 5.55469 11.3516C5.63281 11.3984 5.71875 11.4167 5.8125 11.4062H6.85938V11.9375C6.85938 12.0312 6.88021 12.1172 6.92188 12.1953C6.96354 12.2734 7.02344 12.3359 7.10156 12.3828C7.17969 12.4297 7.26562 12.4531 7.35938 12.4531C7.45312 12.4531 7.53906 12.4297 7.61719 12.3828C7.69531 12.3359 7.75521 12.2734 7.79688 12.1953C7.83854 12.1172 7.85938 12.0312 7.85938 11.9375V11.4062H8.125C8.44792 11.4062 8.7474 11.3255 9.02344 11.1641C9.29948 11.0026 9.51562 10.7865 9.67188 10.5156C9.82812 10.2448 9.90625 9.94792 9.90625 9.625C9.90625 9.30208 9.82812 9.00521 9.67188 8.73438C9.51562 8.46354 9.29948 8.2474 9.02344 8.08594C8.7474 7.92448 8.44792 7.84375 8.125 7.84375H6.59375C6.375 7.84375 6.1875 7.76562 6.03125 7.60938C5.875 7.45312 5.79688 7.26562 5.79688 7.04688C5.79688 6.82812 5.875 6.64323 6.03125 6.49219C6.1875 6.34115 6.375 6.26562 6.59375 6.26562H8.90625C9.03125 6.25521 9.14062 6.20312 9.23438 6.10938C9.32812 6.01562 9.375 5.90104 9.375 5.76562C9.375 5.63021 9.32812 5.51562 9.23438 5.42188C9.14062 5.32812 9.03125 5.27604 8.90625 5.26562H7.85938V4.73438Z" fill="white"/>
</g>
</g>
</svg>
