<svg width="20" height="20" viewBox="0 0 20 20" fill="none" xmlns="http://www.w3.org/2000/svg">
<g clip-path="url(#clip0_232_7597)">
<path d="M10 19.375C4.83063 19.375 0.625 15.1694 0.625 10C0.625 4.83063 4.83063 0.625 10 0.625C15.1694 0.625 19.375 4.83063 19.375 10C19.375 15.1694 15.1694 19.375 10 19.375ZM10 1.875C5.52 1.875 1.875 5.52 1.875 10C1.875 14.48 5.52 18.125 10 18.125C14.48 18.125 18.125 14.48 18.125 10C18.125 5.52 14.48 1.875 10 1.875Z" fill="#848484"/>
<path d="M12.5 7.81254C12.4179 7.81263 12.3367 7.79649 12.2608 7.76507C12.185 7.73364 12.1161 7.68754 12.0582 7.62942L9.55815 5.12879C9.50013 5.07076 9.45409 5.00188 9.42269 4.92606C9.39129 4.85024 9.37512 4.76898 9.37512 4.68692C9.37512 4.52118 9.44096 4.36223 9.55815 4.24504C9.67535 4.12785 9.83429 4.06201 10 4.06201C10.1658 4.06201 10.3247 4.12785 10.4419 4.24504L12.9419 6.74567C13.0296 6.83296 13.0894 6.94433 13.1136 7.06565C13.1379 7.18698 13.1256 7.31278 13.0783 7.42709C13.0309 7.5414 12.9507 7.63907 12.8477 7.7077C12.7448 7.77632 12.6238 7.81282 12.5 7.81254Z" fill="#848484"/>
<path d="M7.50002 7.81254C7.37629 7.81282 7.25528 7.77632 7.15232 7.7077C7.04937 7.63907 6.96913 7.5414 6.92179 7.42709C6.87444 7.31278 6.86213 7.18698 6.88641 7.06565C6.91068 6.94433 6.97046 6.83296 7.05815 6.74567L9.55815 4.24504C9.61617 4.18701 9.68506 4.14098 9.76088 4.10958C9.8367 4.07818 9.91796 4.06201 10 4.06201C10.0821 4.06201 10.1633 4.07818 10.2392 4.10958C10.315 4.14098 10.3839 4.18701 10.4419 4.24504C10.4999 4.30307 10.546 4.37196 10.5774 4.44778C10.6088 4.52359 10.6249 4.60485 10.6249 4.68692C10.6249 4.76898 10.6088 4.85024 10.5774 4.92606C10.546 5.00188 10.4999 5.07076 10.4419 5.12879L7.9419 7.62942C7.88402 7.68765 7.81516 7.73383 7.73931 7.76526C7.66346 7.79669 7.58213 7.81276 7.50002 7.81254Z" fill="#848484"/>
<path d="M10 10.3125C9.91794 10.3126 9.83665 10.2965 9.76082 10.265C9.68499 10.2336 9.61611 10.1875 9.55815 10.1294L7.05815 7.63001C7.00013 7.57199 6.95409 7.5031 6.92269 7.42728C6.89129 7.35146 6.87512 7.2702 6.87512 7.18814C6.87512 7.10607 6.89129 7.02481 6.92269 6.949C6.95409 6.87318 7.00013 6.80429 7.05815 6.74626C7.11618 6.68823 7.18507 6.6422 7.26089 6.6108C7.3367 6.5794 7.41796 6.56323 7.50003 6.56323C7.58209 6.56323 7.66335 6.5794 7.73917 6.6108C7.81499 6.6422 7.88387 6.68823 7.9419 6.74626L10.4419 9.24564C10.5296 9.33293 10.5894 9.4443 10.6136 9.56563C10.6379 9.68695 10.6256 9.81275 10.5783 9.92706C10.5309 10.0414 10.4507 10.139 10.3477 10.2077C10.2448 10.2763 10.1238 10.3128 10 10.3125Z" fill="#848484"/>
<path d="M10 10.3125C9.87629 10.3128 9.75528 10.2763 9.65232 10.2077C9.54937 10.139 9.46913 10.0414 9.42179 9.92706C9.37444 9.81275 9.36213 9.68695 9.38641 9.56563C9.41068 9.4443 9.47046 9.33293 9.55815 9.24564L12.0581 6.74626C12.1753 6.62907 12.3343 6.56323 12.5 6.56323C12.6658 6.56323 12.8247 6.62907 12.9419 6.74626C13.0591 6.86346 13.1249 7.0224 13.1249 7.18814C13.1249 7.35387 13.0591 7.51282 12.9419 7.63001L10.4419 10.1294C10.3839 10.1875 10.3151 10.2336 10.2392 10.265C10.1634 10.2965 10.0821 10.3126 10 10.3125ZM10.0006 12.8125C9.86942 12.8126 9.74148 12.7715 9.63496 12.6948C9.52844 12.6182 9.44875 12.5099 9.40719 12.3855C9.36563 12.261 9.36431 12.1266 9.4034 12.0013C9.4425 11.876 9.52004 11.7663 9.62502 11.6875L12.125 9.81314C12.1905 9.76153 12.2656 9.72354 12.346 9.7014C12.4264 9.67926 12.5104 9.67343 12.593 9.68424C12.6757 9.69505 12.7553 9.72229 12.8273 9.76435C12.8993 9.80641 12.9621 9.86245 13.0121 9.92916C13.0621 9.99587 13.0982 10.0719 13.1184 10.1528C13.1386 10.2337 13.1423 10.3178 13.1295 10.4002C13.1167 10.4825 13.0875 10.5615 13.0437 10.6324C12.9999 10.7034 12.9423 10.7648 12.8744 10.8131L10.3744 12.6875C10.2668 12.7688 10.1355 12.8127 10.0006 12.8125Z" fill="#848484"/>
<path d="M9.99936 12.8125C9.8643 12.8126 9.73287 12.7688 9.62499 12.6875L7.12499 10.8131C7.05707 10.7648 6.99951 10.7033 6.9557 10.6324C6.91189 10.5615 6.88271 10.4825 6.86988 10.4002C6.85704 10.3178 6.86082 10.2337 6.88098 10.1528C6.90114 10.0719 6.93729 9.99587 6.98728 9.92916C7.03727 9.86244 7.1001 9.80641 7.17208 9.76435C7.24405 9.72228 7.32371 9.69504 7.40637 9.68423C7.48903 9.67342 7.57302 9.67926 7.65339 9.70139C7.73377 9.72353 7.8089 9.76152 7.87436 9.81313L10.3744 11.6875C10.4793 11.7662 10.5568 11.8759 10.5959 12.0012C10.635 12.1264 10.6338 12.2607 10.5923 12.3852C10.5508 12.5096 10.4712 12.6178 10.3648 12.6945C10.2584 12.7712 10.1305 12.8125 9.99936 12.8125Z" fill="#848484"/>
<path d="M10.0006 15.9374C9.88432 15.9376 9.77033 15.9054 9.6714 15.8443C9.57247 15.7832 9.49253 15.6958 9.44057 15.5918L6.94057 10.5918C6.86639 10.4435 6.85415 10.2719 6.90655 10.1146C6.95894 9.95729 7.07167 9.82725 7.21995 9.75307C7.36822 9.67889 7.53988 9.66665 7.69718 9.71905C7.85448 9.77144 7.98452 9.88417 8.0587 10.0324L10.5587 15.0324C10.6064 15.1277 10.629 15.2335 10.6243 15.34C10.6196 15.4464 10.5878 15.5498 10.5319 15.6405C10.476 15.7312 10.3978 15.8061 10.3048 15.858C10.2118 15.91 10.1071 15.9373 10.0006 15.9374Z" fill="#848484"/>
<path d="M9.99941 15.9376C9.89297 15.9374 9.78833 15.91 9.69542 15.8581C9.60251 15.8062 9.5244 15.7314 9.4685 15.6408C9.4126 15.5502 9.38075 15.4469 9.37599 15.3405C9.37123 15.2342 9.3937 15.1284 9.44128 15.0332L11.9413 10.0332C11.978 9.95976 12.0288 9.8943 12.0909 9.84052C12.1529 9.78675 12.2249 9.74572 12.3028 9.71978C12.3807 9.69384 12.4629 9.68349 12.5448 9.68933C12.6267 9.69516 12.7066 9.71707 12.78 9.7538C12.8535 9.79053 12.9189 9.84136 12.9727 9.90339C13.0265 9.96542 13.0675 10.0374 13.0934 10.1153C13.1194 10.1932 13.1297 10.2754 13.1239 10.3573C13.118 10.4392 13.0961 10.5191 13.0594 10.5926L10.5594 15.5926C10.4494 15.8113 10.2288 15.9376 9.99941 15.9376Z" fill="#848484"/>
</g>
<defs>
<clipPath id="clip0_232_7597">
<rect width="20" height="20" fill="white"/>
</clipPath>
</defs>
</svg>
