<svg width="20" height="18" viewBox="0 0 20 18" fill="none" xmlns="http://www.w3.org/2000/svg">
<path fill-rule="evenodd" clip-rule="evenodd" d="M4.82158 0L4.80699 0.000423952L4.80562 0.000424786C4.80105 0.000428957 4.79646 0.000433143 4.79171 2.01882e-05C4.76801 0.000514799 4.74436 0.00213995 4.72131 0.00534988C4.71371 0.00623186 4.70614 0.00722951 4.69852 0.00823501C4.69401 0.0088291 4.68949 0.00942592 4.68492 0.0100033C4.66456 0.0134151 4.64424 0.0176849 4.62418 0.023272C4.61517 0.0255741 4.60621 0.0280403 4.59738 0.0304713C4.59401 0.0313979 4.59066 0.0323194 4.58734 0.0332247C4.56757 0.0393822 4.54796 0.0463925 4.52889 0.0546747C4.51385 0.0607917 4.49907 0.0673933 4.48448 0.0739393C4.46969 0.0811112 4.45511 0.0888029 4.44077 0.0975646C4.42533 0.106397 4.4102 0.115774 4.39566 0.124955C4.35399 0.1529 4.31446 0.18553 4.27787 0.222837L0.217512 4.35807L0.145397 4.44311C-0.0708491 4.74003 -0.0457867 5.16055 0.219952 5.4287L0.303876 5.50178C0.596733 5.72103 1.01156 5.69559 1.27607 5.42623L4.05956 2.59014L4.0602 14.5034L4.06702 14.6062C4.11651 14.9757 4.42892 15.2605 4.80699 15.2605C5.21947 15.2605 5.55379 14.9215 5.55379 14.5034L5.55314 2.58913L8.33817 5.42623L8.42176 5.49971C8.71361 5.72032 9.12858 5.69685 9.39429 5.4287C9.68663 5.13375 9.68772 4.65438 9.39672 4.35807L5.33642 0.222837L5.25253 0.149125C5.23949 0.139273 5.22619 0.129906 5.2129 0.121901C5.20271 0.115193 5.19234 0.108734 5.18187 0.10222C5.17909 0.100491 5.17631 0.0987574 5.17352 0.0970144C5.15799 0.0881316 5.14215 0.0798595 5.12612 0.072829C5.11509 0.0675383 5.10393 0.0625109 5.09282 0.0575094C5.09034 0.0563942 5.08787 0.0552803 5.0854 0.054165C5.06668 0.046554 5.04766 0.0397405 5.02804 0.0341383C5.01937 0.0314178 5.01063 0.0288516 5.00195 0.0263031C4.99807 0.0251637 4.9942 0.0240278 4.99036 0.0228833C4.9692 0.0174729 4.94784 0.0130163 4.92653 0.0100689C4.91295 0.00785461 4.89926 0.00601173 4.88546 0.0045505L4.89442 0.00502182C4.87022 0.00215004 4.84588 0.000474423 4.82158 0ZM15.4329 3.39383C15.3835 3.02434 15.071 2.73953 14.693 2.73953C14.2805 2.73953 13.9462 3.07844 13.9462 3.49659L13.9461 15.4097L11.1618 12.5738L11.0782 12.5003C10.7864 12.2797 10.3714 12.3031 10.1057 12.5713C9.81338 12.8662 9.81229 13.3456 10.1032 13.6419L14.1636 17.7771L14.1649 17.7778C14.1883 17.8015 14.2132 17.8237 14.2395 17.844L14.2475 17.8509C14.2586 17.8593 14.2699 17.8673 14.2814 17.8743C14.2961 17.8842 14.3112 17.8936 14.3265 17.9029C14.3434 17.9126 14.3607 17.9216 14.3779 17.9291C14.3888 17.9342 14.3999 17.9391 14.4113 17.9445C14.4323 17.9531 14.4536 17.9607 14.475 17.9668C14.4815 17.9688 14.488 17.9707 14.4945 17.9726C14.4993 17.974 14.5041 17.9754 14.5089 17.9769C14.5303 17.9824 14.5519 17.9869 14.5735 17.9899C14.587 17.9921 14.6007 17.994 14.6144 17.9954L14.6056 17.995C14.6298 17.9978 14.6541 17.9995 14.6784 18L14.693 17.9995H14.6941C14.6985 17.9995 14.7029 17.9995 14.7073 18C14.7317 17.9995 14.7559 17.9978 14.7805 17.9944C14.7912 17.9931 14.8019 17.9916 14.8121 17.9905C14.8338 17.9869 14.8554 17.9824 14.8769 17.9764C14.889 17.9733 14.901 17.9699 14.9126 17.9667C14.9324 17.9606 14.952 17.9536 14.9711 17.9453C14.9859 17.9393 15.0004 17.9328 15.0147 17.9264L15.0155 17.9261C15.0303 17.9189 15.0449 17.9112 15.0592 17.9024C15.0747 17.8936 15.0898 17.8842 15.1044 17.875C15.146 17.8471 15.1855 17.8145 15.2221 17.7771L19.2825 13.6419L19.3546 13.5568C19.5709 13.26 19.5458 12.8394 19.2801 12.5713C18.9877 12.2763 18.5149 12.2774 18.2239 12.5738L15.4397 15.4076L15.4398 3.49659L15.4329 3.39383Z" fill="#848484"/>
</svg>
