<svg width="14" height="18" viewBox="0 0 14 18" fill="none" xmlns="http://www.w3.org/2000/svg">
<g id="fire-icon.90337b6f.svg" clip-path="url(#clip0_501_10157)">
<path id="Vector" fill-rule="evenodd" clip-rule="evenodd" d="M10.2945 16.9243C9.81245 17.1526 9.29548 17.3251 8.75363 17.4417C8.95005 17.2631 9.11938 17.0503 9.25145 16.8128C9.45573 16.4451 9.57426 16.0186 9.57426 15.5631C9.57426 15.054 9.42754 14.5634 9.15099 14.1462L7.20374 11.0283L5.25648 14.1462C4.97991 14.5634 4.83316 15.053 4.83316 15.5631C4.83316 16.0186 4.95056 16.4451 5.15601 16.8128C5.28809 17.0503 5.45741 17.2621 5.65383 17.4417C5.11312 17.3251 4.59611 17.1516 4.11409 16.9243C1.9501 15.9009 0.466797 13.8405 0.466797 11.4693C0.466797 8.67772 2.16684 7.26283 4.94605 4.52188C7.35499 2.14549 7.19809 0.300975 7.20035 0.294779C7.17551 0.262764 7.41483 0.487906 7.65414 0.803932C7.62027 0.75849 9.4772 2.83434 9.79892 5.24482C10.0247 6.93648 9.57314 8.23983 9.57314 8.23983C9.57314 8.23983 10.6772 7.92277 11.0576 6.56056C11.1219 6.33128 11.1491 6.01526 11.1671 5.91198C11.1671 5.91198 11.7846 6.58843 12.6166 7.79264C13.4485 8.99787 13.9407 10.2135 13.9407 11.4682C13.9418 13.8405 12.4584 15.9009 10.2945 16.9243Z" fill="#010712"/>
</g>
<defs>
<clipPath id="clip0_501_10157">
<rect width="14" height="17.7333" fill="white"/>
</clipPath>
</defs>
</svg>
