<svg width="12" height="15" viewBox="0 0 12 15" fill="none" xmlns="http://www.w3.org/2000/svg">
<path id="Vector" fill-rule="evenodd" clip-rule="evenodd" d="M4.5 0C2.567 0 1 1.067 1 3V7C0.4477 7 0 7.4477 0 8V14C0 14.5523 0.4477 15 1 15H11C11.5523 15 12 14.5523 12 14V8C12 7.4477 11.5523 7 11 7V2.98047C11 1.04747 9.433 0 7.5 0H4.5ZM10 7V3C10 1.61929 8.8807 1 7.5 1H4.5C3.1193 1 2 1.61929 2 3V7H10ZM1 8V14H11V8H10H2H1ZM4.5 10C4.2239 10 4 10.2239 4 10.5C4 10.7761 4.2239 11 4.5 11H5C5 11.5523 5.4477 12 6 12C6.5523 12 7 11.5523 7 11H7.5C7.7761 11 8 10.7761 8 10.5C8 10.2239 7.7761 10 7.5 10H6H4.5Z" fill="#25DEB0"/>
</svg>
