<svg width="20" height="20" viewBox="0 0 20 20" fill="none" xmlns="http://www.w3.org/2000/svg">
<path d="M9.91968 3.99219C6.64562 3.99219 3.98218 6.65562 3.98218 9.92969C3.98218 13.2037 6.64562 15.8672 9.91968 15.8672C13.1937 15.8672 15.8572 13.2037 15.8572 9.92969C15.8572 6.65562 13.1937 3.99219 9.91968 3.99219ZM9.91968 15.2422C6.9903 15.2422 4.60718 12.8591 4.60718 9.92969C4.60718 7.00031 6.9903 4.61719 9.91968 4.61719C12.8491 4.61719 15.2322 7.00031 15.2322 9.92969C15.2322 12.8591 12.8491 15.2422 9.91968 15.2422Z" fill="#848484"/>
<path d="M9.91971 5.39836C7.42127 5.39836 5.38845 7.43117 5.38845 9.92961C5.38845 12.428 7.42127 14.4609 9.91971 14.4609C12.4181 14.4609 14.451 12.428 14.451 9.92961C14.451 7.43117 12.4181 5.39836 9.91971 5.39836ZM9.91971 14.1484C7.59346 14.1484 5.70095 12.2559 5.70095 9.92961C5.70095 7.60336 7.59346 5.71086 9.91971 5.71086C12.246 5.71086 14.1385 7.60336 14.1385 9.92961C14.1385 12.2559 12.246 14.1484 9.91971 14.1484ZM2.86658 15.7509C2.84452 15.7727 2.82945 15.8005 2.82331 15.8309C2.81717 15.8613 2.82024 15.8929 2.83211 15.9215C2.84399 15.9502 2.86413 15.9746 2.88998 15.9918C2.91582 16.0089 2.94619 16.0179 2.9772 16.0177H5.70127C5.74271 16.0177 5.78245 16.0013 5.81175 15.972C5.84106 15.9427 5.85752 15.9029 5.85752 15.8615C5.85752 15.82 5.84106 15.7803 5.81175 15.751C5.78245 15.7217 5.74271 15.7052 5.70127 15.7052H3.35439L3.96939 15.0902C4.08904 14.9704 4.15625 14.808 4.15625 14.6387C4.15625 14.4693 4.08904 14.3069 3.96939 14.1871C3.72845 13.9462 3.30814 13.9459 3.06627 14.1871L1.36095 15.8924C1.24033 16.013 1.17377 16.1734 1.17377 16.344C1.17377 16.5146 1.24002 16.6749 1.36095 16.7955L3.06627 18.5009C3.18689 18.6215 3.3472 18.688 3.51783 18.688C3.68845 18.688 3.84877 18.6218 3.96939 18.5009C4.08904 18.381 4.15625 18.2186 4.15625 18.0493C4.15625 17.88 4.08904 17.7176 3.96939 17.5977L3.35439 16.9827H5.70127C5.74271 16.9827 5.78245 16.9663 5.81175 16.937C5.84106 16.9077 5.85752 16.8679 5.85752 16.8265C5.85752 16.785 5.84106 16.7453 5.81175 16.716C5.78245 16.6867 5.74271 16.6702 5.70127 16.6702H2.97689C2.94595 16.6702 2.91568 16.6793 2.88994 16.6965C2.86419 16.7136 2.84412 16.7381 2.83227 16.7667C2.82042 16.7952 2.81733 16.8267 2.82338 16.857C2.82943 16.8874 2.84436 16.9153 2.86627 16.9371L3.74814 17.819C3.80971 17.8805 3.84377 17.9624 3.84377 18.0496C3.84377 18.1365 3.81002 18.2184 3.74814 18.2799C3.68608 18.3394 3.60346 18.3725 3.51752 18.3725C3.43158 18.3725 3.34896 18.3394 3.28689 18.2799L1.58158 16.5746C1.52002 16.513 1.48595 16.4312 1.48595 16.344C1.48595 16.2568 1.5197 16.1749 1.58158 16.1134L3.28689 14.408C3.34896 14.3486 3.43158 14.3154 3.51752 14.3154C3.60346 14.3154 3.68608 14.3486 3.74814 14.408C3.80921 14.4693 3.8435 14.5522 3.8435 14.6387C3.8435 14.7251 3.80921 14.8081 3.74814 14.8693L2.86658 15.7509ZM6.63845 15.7109C6.59701 15.7109 6.55727 15.7273 6.52797 15.7566C6.49867 15.7859 6.4822 15.8257 6.4822 15.8671V16.8046C6.4822 16.8461 6.49867 16.8858 6.52797 16.9151C6.55727 16.9444 6.59701 16.9609 6.63845 16.9609C6.67989 16.9609 6.71964 16.9444 6.74894 16.9151C6.77824 16.8858 6.7947 16.8461 6.7947 16.8046V15.8671C6.7947 15.8257 6.77824 15.7859 6.74894 15.7566C6.71964 15.7273 6.67989 15.7109 6.63845 15.7109ZM7.57595 15.7109C7.53451 15.7109 7.49477 15.7273 7.46547 15.7566C7.43617 15.7859 7.4197 15.8257 7.4197 15.8671V16.8046C7.4197 16.8461 7.43617 16.8858 7.46547 16.9151C7.49477 16.9444 7.53451 16.9609 7.57595 16.9609C7.61739 16.9609 7.65714 16.9444 7.68644 16.9151C7.71574 16.8858 7.7322 16.8461 7.7322 16.8046V15.8671C7.7322 15.8257 7.71574 15.7859 7.68644 15.7566C7.65714 15.7273 7.61739 15.7109 7.57595 15.7109ZM18.4828 3.07961L16.7775 1.3743C16.5366 1.13305 16.1156 1.13305 15.8744 1.3743C15.7547 1.49412 15.6875 1.65653 15.6875 1.82586C15.6875 1.99519 15.7547 2.1576 15.8744 2.27742L16.4894 2.89242H14.1425C14.1011 2.89242 14.0613 2.90888 14.032 2.93819C14.0027 2.96749 13.9863 3.00723 13.9863 3.04867C13.9863 3.09011 14.0027 3.12985 14.032 3.15916C14.0613 3.18846 14.1011 3.20492 14.1425 3.20492H16.8666C16.8975 3.20498 16.9278 3.19584 16.9535 3.17868C16.9793 3.16151 16.9994 3.13709 17.0112 3.1085C17.0231 3.07992 17.0261 3.04846 17.0201 3.01811C17.014 2.98777 16.9991 2.9599 16.9772 2.93805L16.0953 2.05617C16.065 2.02598 16.041 1.99009 16.0246 1.95056C16.0083 1.91102 15.9999 1.86864 16 1.82586C16 1.73898 16.0338 1.65711 16.0956 1.59555C16.1577 1.53611 16.2403 1.50293 16.3263 1.50293C16.4122 1.50293 16.4948 1.53611 16.5569 1.59555L18.2622 3.30086C18.3238 3.36242 18.3578 3.4443 18.3578 3.53148C18.3578 3.61867 18.3241 3.70055 18.2622 3.76211L16.5569 5.46742C16.4948 5.52679 16.4122 5.55992 16.3263 5.55992C16.2404 5.55992 16.1577 5.52679 16.0956 5.46742C16.0346 5.4062 16.0003 5.32327 16.0003 5.2368C16.0003 5.15033 16.0346 5.06739 16.0956 5.00617L16.9775 4.1243C16.9996 4.1025 17.0146 4.07463 17.0208 4.04423C17.0269 4.01383 17.0239 3.98229 17.012 3.95364C17.0001 3.925 16.98 3.90054 16.9541 3.8834C16.9283 3.86626 16.8979 3.85721 16.8669 3.85742H14.1428C14.1014 3.85742 14.0616 3.87388 14.0323 3.90319C14.003 3.93249 13.9866 3.97223 13.9866 4.01367C13.9866 4.05511 14.003 4.09486 14.0323 4.12416C14.0616 4.15346 14.1014 4.16992 14.1428 4.16992H16.4897L15.8747 4.78492C15.7856 4.87431 15.7249 4.9881 15.7004 5.11192C15.6758 5.23575 15.6885 5.36407 15.7368 5.4807C15.7851 5.59733 15.8669 5.69705 15.9718 5.76726C16.0767 5.83747 16.2 5.87505 16.3263 5.87523C16.4966 5.87523 16.6572 5.80898 16.7778 5.68805L18.4831 3.98273C18.6038 3.86211 18.6703 3.7018 18.6703 3.53117C18.6703 3.36055 18.6035 3.20023 18.4828 3.07961ZM13.2053 4.16398C13.2468 4.16398 13.2865 4.14752 13.3158 4.11822C13.3451 4.08892 13.3616 4.04917 13.3616 4.00773V3.07023C13.3616 3.02879 13.3451 2.98905 13.3158 2.95975C13.2865 2.93045 13.2468 2.91398 13.2053 2.91398C13.1639 2.91398 13.1241 2.93045 13.0948 2.95975C13.0655 2.98905 13.0491 3.02879 13.0491 3.07023V4.00773C13.0491 4.0943 13.1188 4.16398 13.2053 4.16398ZM12.2678 4.16398C12.3093 4.16398 12.349 4.14752 12.3783 4.11822C12.4076 4.08892 12.4241 4.04917 12.4241 4.00773V3.07023C12.4241 3.02879 12.4076 2.98905 12.3783 2.95975C12.349 2.93045 12.3093 2.91398 12.2678 2.91398C12.2264 2.91398 12.1866 2.93045 12.1573 2.95975C12.128 2.98905 12.1116 3.02879 12.1116 3.07023V4.00773C12.1116 4.0943 12.1813 4.16398 12.2678 4.16398Z" fill="#848484"/>
<path fill-rule="evenodd" clip-rule="evenodd" d="M8.62448 7.56445L8.62064 7.56456L8.61663 7.56446C8.6104 7.56459 8.60418 7.56502 8.59813 7.56586L8.58856 7.56708C8.58321 7.56798 8.57787 7.5691 8.5726 7.57057L8.56292 7.57318C8.55772 7.5748 8.55257 7.57665 8.54756 7.57882L8.53589 7.58388C8.532 7.58577 8.52817 7.58779 8.5244 7.59009C8.52034 7.59241 8.51636 7.59488 8.51254 7.59729C8.50159 7.60464 8.4912 7.61321 8.48159 7.62301L7.41452 8.70976L7.39557 8.73211C7.33874 8.81014 7.34533 8.92065 7.41516 8.99112L7.43722 9.01033C7.51418 9.06794 7.6232 9.06126 7.69271 8.99047L8.42422 8.24514L8.42439 11.376L8.42618 11.403C8.43918 11.5001 8.52128 11.5749 8.62064 11.5749C8.72904 11.5749 8.8169 11.4858 8.8169 11.376L8.81673 8.24488L9.54864 8.99047L9.57061 9.00978C9.6473 9.06776 9.75636 9.06159 9.82619 8.99112C9.90302 8.91361 9.9033 8.78763 9.82683 8.70976L8.75978 7.62301L8.73773 7.60364C8.7343 7.60105 8.73081 7.59859 8.72732 7.59649L8.71697 7.58995C8.71288 7.58761 8.70872 7.58544 8.70451 7.58359L8.69381 7.57869C8.68889 7.57669 8.68389 7.5749 8.67874 7.57342L8.66883 7.57047C8.66327 7.56905 8.65766 7.56787 8.65206 7.5671C8.64849 7.56652 8.64489 7.56603 8.64126 7.56565L8.64362 7.56577C8.63726 7.56502 8.63086 7.56458 8.62448 7.56445ZM11.4132 8.45635C11.4002 8.35924 11.318 8.2844 11.2187 8.2844C11.1103 8.2844 11.0224 8.37346 11.0224 8.48335L11.0224 11.6141L10.2907 10.8688L10.2687 10.8495C10.192 10.7916 10.083 10.7977 10.0131 10.8682C9.93633 10.9457 9.93604 11.0717 10.0125 11.1496L11.0796 12.2363L11.0799 12.2365C11.0861 12.2427 11.0926 12.2485 11.0995 12.2539L11.1016 12.2557C11.1045 12.2579 11.1075 12.26 11.1105 12.2618C11.1144 12.2644 11.1184 12.2669 11.1224 12.2694C11.1268 12.2719 11.1314 12.2743 11.1359 12.2762L11.1447 12.2803C11.1502 12.2825 11.1558 12.2845 11.1614 12.2861L11.1703 12.2888C11.1759 12.2902 11.1816 12.2914 11.1873 12.2922C11.1908 12.2928 11.1944 12.2933 11.198 12.2937L11.1957 12.2935C11.2021 12.2943 11.2085 12.2947 11.2149 12.2949L11.2187 12.2947L11.2225 12.2949C11.2289 12.2947 11.2352 12.2943 11.2417 12.2934L11.25 12.2924C11.2557 12.2914 11.2614 12.2902 11.267 12.2887L11.2764 12.2861C11.2816 12.2845 11.2868 12.2827 11.2918 12.2805L11.3035 12.2754C11.3073 12.2735 11.3112 12.2715 11.3149 12.2692C11.319 12.2669 11.323 12.2644 11.3268 12.262C11.3377 12.2547 11.3481 12.2461 11.3578 12.2363L12.4248 11.1496L12.4438 11.1272C12.5006 11.0492 12.494 10.9387 12.4242 10.8682C12.3474 10.7907 12.2231 10.791 12.1466 10.8688L11.4149 11.6136L11.4149 8.48335L11.4132 8.45635Z" fill="#848484"/>
</svg>
