<svg width="20" height="20" viewBox="0 0 20 20" fill="none" xmlns="http://www.w3.org/2000/svg">
<g clip-path="url(#clip0_232_7627)">
<path d="M17.6487 6.02866V5.12841C17.6487 3.69472 16.4864 2.53247 15.0527 2.53247H3.37222C1.93853 2.53247 0.776283 3.69472 0.776283 5.12841V6.02866H0.77772L0.776283 6.04328C0.68547 6.94947 1.09397 7.85485 1.86922 8.33278C4.08278 9.69753 6.3826 8.13897 6.3826 6.04328C6.3826 6.03828 6.38116 6.03366 6.38116 6.02866H6.41085L6.40941 6.04328C6.3186 6.94941 6.72703 7.85466 7.50216 8.33266C9.71566 9.69766 12.0157 8.13903 12.0157 6.04328C12.0157 6.03828 12.0142 6.03366 12.0142 6.02866H12.044L12.0425 6.04328C11.9517 6.94947 12.3602 7.85485 13.1355 8.33278C15.349 9.69753 17.6488 8.13897 17.6488 6.04328C17.6488 6.03828 17.6474 6.03366 17.6474 6.02866H17.6487Z" stroke="#848484" stroke-width="2" stroke-miterlimit="10" stroke-linecap="round" stroke-linejoin="round"/>
<path d="M16.0994 8.55078V15.6424C16.0994 16.7664 15.1882 17.6775 14.0643 17.6775H4.34775C3.22375 17.6775 2.31262 16.7663 2.31262 15.6424V8.56741" stroke="#848484" stroke-width="2" stroke-miterlimit="10" stroke-linecap="round" stroke-linejoin="round"/>
<path d="M11.5908 17.6774H6.82166V14.523C6.82166 13.2061 7.88928 12.1384 9.20622 12.1384C10.5232 12.1384 11.5908 13.2061 11.5908 14.523V17.6774Z" stroke="#848484" stroke-width="2" stroke-miterlimit="10" stroke-linecap="round" stroke-linejoin="round"/>
</g>
<defs>
<clipPath id="clip0_232_7627">
<rect width="20" height="20" fill="white"/>
</clipPath>
</defs>
</svg>
