<svg width="16" height="18" viewBox="0 0 16 18" fill="none" xmlns="http://www.w3.org/2000/svg">
<path fill-rule="evenodd" clip-rule="evenodd" d="M14.9907 11.7964L15.7186 12.9336C16.0271 13.4155 16.0847 13.9304 15.8777 14.3463C15.6714 14.7614 15.238 15 14.6902 15H1.30996C0.761732 15 0.328708 14.7618 0.122065 14.3459C-0.0849804 13.93 -0.0265726 13.4155 0.281579 12.9336L1.00946 11.7964C1.316 11.3175 1.58468 10.3892 1.58468 9.8101V6.82192C1.58468 3.06057 4.46237 0 7.99987 0C11.5374 0 14.4155 3.06014 14.4155 6.82192V9.8101C14.4155 10.3897 14.6841 11.3179 14.9907 11.7964ZM1.20586 13.8462H14.7937C14.8175 13.8462 14.8383 13.8453 14.8571 13.8435C14.8481 13.826 14.8371 13.8068 14.824 13.7862L14.0848 12.6249C13.6381 11.9238 13.2883 10.7083 13.2883 9.85887V6.8076C13.2883 3.6903 10.9161 1.15385 8.00021 1.15385C5.08472 1.15385 2.71248 3.6903 2.71248 6.8076V9.85887C2.71248 10.7078 2.36231 11.9229 1.9156 12.6249L1.1764 13.7862C1.1629 13.8072 1.15186 13.826 1.14286 13.8435C1.16167 13.8453 1.18213 13.8462 1.20586 13.8462Z" fill="#B8B8B8"/>
<path d="M10.4864 15.0323C10.1006 14.9164 9.69198 15.1225 9.57167 15.4905C9.35395 16.1567 8.72223 16.6043 7.99991 16.6043C7.2771 16.6043 6.64587 16.1567 6.42815 15.4905C6.30784 15.1225 5.89822 14.9169 5.51344 15.0323C5.12817 15.1467 4.91337 15.538 5.03319 15.906C5.44184 17.1584 6.63418 18 7.99991 18C9.36564 18 10.5575 17.1584 10.9666 15.906C11.0869 15.5384 10.8717 15.1467 10.4864 15.0323Z" fill="#B8B8B8"/>
</svg>
