<svg width="17" height="17" viewBox="0 0 17 17" fill="none" xmlns="http://www.w3.org/2000/svg">
<g id="Frame" clip-path="url(#clip0_501_10205)">
<g id="Group">
<path id="Vector" d="M6.83105 14.5156C5.85189 14.5156 4.94564 14.2708 4.1123 13.7812C3.2998 13.3021 2.65397 12.6562 2.1748 11.8438C1.68522 11 1.44043 10.0911 1.44043 9.11719C1.44043 8.14323 1.68522 7.23958 2.1748 6.40625C2.65397 5.59375 3.2998 4.94792 4.1123 4.46875C4.94564 3.97917 5.85189 3.73438 6.83105 3.73438V2.59375C5.64355 2.59375 4.5446 2.89062 3.53418 3.48438C2.5446 4.05729 1.76335 4.83854 1.19043 5.82812C0.59668 6.83854 0.299805 7.9349 0.299805 9.11719C0.299805 10.2995 0.59668 11.401 1.19043 12.4219C1.76335 13.401 2.5446 14.1823 3.53418 14.7656C4.5446 15.3594 5.64095 15.6562 6.82324 15.6562C8.00553 15.6562 9.10189 15.3594 10.1123 14.7656C11.0915 14.1927 11.8727 13.4167 12.4561 12.4375C13.0498 11.4271 13.3519 10.3333 13.3623 9.15625H12.2061C12.2061 10.125 11.9613 11.026 11.4717 11.8594C10.9925 12.6615 10.3467 13.3021 9.53418 13.7812C8.70085 14.2708 7.7998 14.5156 6.83105 14.5156ZM7.5498 1.73438V8.4375H14.2061V8.39062C14.2061 7.18229 13.904 6.0625 13.2998 5.03125C12.7165 4.03125 11.9196 3.23438 10.9092 2.64062C9.87793 2.03646 8.75814 1.73438 7.5498 1.73438ZM8.69043 7.28125V3C9.39876 3.15625 10.0498 3.4349 10.6436 3.83594C11.2373 4.23698 11.7347 4.73438 12.1357 5.32812C12.5368 5.92188 12.8102 6.57292 12.9561 7.28125H8.69043Z" fill="white"/>
</g>
</g>
<defs>
<clipPath id="clip0_501_10205">
<rect width="16" height="16" fill="white" transform="matrix(1 0 0 -1 0.299805 16.5)"/>
</clipPath>
</defs>
</svg>
