<svg width="18" height="18" viewBox="0 0 18 18" fill="none" xmlns="http://www.w3.org/2000/svg">
<g id="noun-question-1934635 1">
<g id="Group">
<path id="Vector" d="M9.22419 15.4309C7.43874 15.4309 5.72653 14.7217 4.46396 13.4592C3.20139 12.1966 2.49219 10.4843 2.49219 8.69894C2.49219 6.9136 3.20144 5.20128 4.46396 3.93871C5.72648 2.67629 7.43884 1.96704 9.22419 1.96704C11.0095 1.96704 12.7218 2.67629 13.9844 3.93871C15.2469 5.20123 15.9562 6.9136 15.9562 8.69894C15.9543 10.4839 15.2444 12.1951 13.9823 13.4571C12.7202 14.7192 11.009 15.4291 9.22414 15.431L9.22419 15.4309ZM9.22419 2.83094C7.66788 2.83094 6.17524 3.44919 5.07493 4.54968C3.97454 5.65007 3.35629 7.14271 3.35629 8.69894C3.35629 10.2552 3.97454 11.7479 5.07493 12.8482C6.17542 13.9487 7.66796 14.5669 9.22419 14.5669C10.7804 14.5669 12.2731 13.9487 13.3734 12.8482C14.4738 11.7477 15.0921 10.2552 15.0921 8.69894C15.0902 7.14322 14.4713 5.6518 13.3713 4.55174C12.2713 3.45166 10.7799 2.83279 9.22414 2.83089L9.22419 2.83094Z" fill="#25DEB0"/>
<path id="Vector_2" d="M8.74219 11.9533C8.74219 12.1462 8.84514 12.3245 9.01219 12.4209C9.17933 12.5175 9.38515 12.5175 9.55219 12.4209C9.71933 12.3245 9.82219 12.1462 9.82219 11.9533C9.82219 11.7604 9.71933 11.5821 9.55219 11.4857C9.38514 11.3892 9.17933 11.3892 9.01219 11.4857C8.84514 11.5821 8.74219 11.7604 8.74219 11.9533Z" fill="#25DEB0"/>
<path id="Vector_3" d="M9.26334 10.7797C9.14883 10.7797 9.03894 10.7342 8.95788 10.6531C8.87692 10.5722 8.83132 10.4623 8.83132 10.3477V9.6636C8.83574 9.12681 9.10533 8.6268 9.55132 8.32805C9.83608 8.16262 10.0996 7.96314 10.3362 7.734C10.5668 7.4868 10.6955 7.16134 10.6962 6.82325C10.6896 6.44859 10.5339 6.09209 10.2636 5.83266C9.99327 5.5732 9.63077 5.43219 9.25619 5.44083C8.88565 5.42224 8.52333 5.55453 8.25202 5.80756C7.98071 6.06059 7.82342 6.41275 7.81619 6.7836C7.81619 6.93799 7.73383 7.08063 7.60013 7.15777C7.46644 7.23491 7.3018 7.23491 7.16811 7.15777C7.03451 7.08063 6.95215 6.93799 6.95215 6.7836C6.98992 5.98635 7.43951 5.26605 8.13922 4.88195C8.83893 4.49775 9.68799 4.50508 10.3809 4.90124C11.0739 5.29739 11.511 6.02544 11.5349 6.82328C11.5344 7.38537 11.3195 7.92619 10.9337 8.3352C10.6369 8.6269 10.3043 8.87973 9.94375 9.08765C9.73854 9.19925 9.68097 9.56285 9.67375 9.6817V10.3513C9.67295 10.4616 9.63005 10.5674 9.55371 10.6471C9.47737 10.7268 9.37353 10.7742 9.26334 10.7797Z" fill="#25DEB0"/>
<g id="t">
<path id="Vector_4" d="M2.07074 15.9342C2.06833 15.9356 2.06571 15.9365 2.0631 15.937C2.06069 15.9375 2.05798 15.9378 2.05507 15.9378C2.04643 15.9378 2.0396 15.9356 2.03458 15.931C2.02975 15.9261 2.02734 15.9196 2.02734 15.9113C2.02734 15.9032 2.02975 15.8968 2.03458 15.892C2.0396 15.8872 2.04643 15.8848 2.05507 15.8848C2.05798 15.8848 2.06069 15.8852 2.0631 15.886C2.06571 15.8866 2.06833 15.8875 2.07074 15.8888V15.8992C2.06833 15.8976 2.06592 15.8964 2.0635 15.8956C2.06109 15.8948 2.05848 15.8944 2.05587 15.8944C2.05125 15.8944 2.04763 15.896 2.04502 15.8992C2.04231 15.9022 2.041 15.9063 2.041 15.9113C2.041 15.9167 2.04231 15.9209 2.04502 15.9241C2.04763 15.9272 2.05125 15.9286 2.05587 15.9286C2.05848 15.9286 2.06109 15.9282 2.0635 15.9274C2.06592 15.9266 2.06833 15.9253 2.07074 15.9237V15.9342Z" fill="#25DEB0"/>
</g>
<g id="c">
<path id="Vector_5" d="M2.11056 15.909C2.10945 15.9085 2.10835 15.9082 2.10734 15.9082C2.10624 15.908 2.10513 15.9077 2.10413 15.9077C2.10092 15.9077 2.0983 15.9089 2.0965 15.911C2.09489 15.9129 2.09408 15.9157 2.09408 15.9194V15.9371H2.08203V15.8985H2.09408V15.9049C2.09569 15.9025 2.0974 15.9008 2.09931 15.8997C2.10142 15.8984 2.10393 15.8977 2.10694 15.8977H2.10815C2.10865 15.8977 2.10945 15.8979 2.11056 15.8981L2.11056 15.909Z" fill="#25DEB0"/>
</g>
<g id="a">
<path id="Vector_6" d="M2.15426 15.9178V15.9214H2.12574C2.12594 15.9241 2.12694 15.9262 2.12855 15.9278C2.13036 15.9292 2.13297 15.9298 2.13618 15.9298C2.13879 15.9298 2.14151 15.9294 2.14422 15.9286C2.14683 15.9278 2.14964 15.9268 2.15266 15.9254V15.9347C2.14964 15.9358 2.14673 15.9366 2.14382 15.9371C2.1408 15.9376 2.13789 15.9379 2.13498 15.9379C2.12795 15.9379 2.12262 15.9362 2.11891 15.9327C2.11509 15.9292 2.11328 15.9242 2.11328 15.9178C2.11328 15.9117 2.11509 15.9068 2.11891 15.9033C2.12262 15.8996 2.12785 15.8977 2.13458 15.8977C2.1404 15.8977 2.14512 15.8996 2.14864 15.9033C2.15236 15.9068 2.15426 15.9117 2.15426 15.9178ZM2.14181 15.9138C2.14181 15.9114 2.14111 15.9096 2.1398 15.9082C2.13839 15.9065 2.13659 15.9057 2.13417 15.9057C2.13196 15.9057 2.13016 15.9064 2.12855 15.9077C2.12694 15.9092 2.12594 15.9112 2.12574 15.9138L2.14181 15.9138Z" fill="#25DEB0"/>
</g>
<g id="f">
<path id="Vector_7" d="M2.18122 15.9198C2.17851 15.9198 2.1765 15.9202 2.1752 15.921C2.17379 15.9218 2.17319 15.9232 2.17319 15.925C2.17319 15.9266 2.17369 15.9278 2.17479 15.9286C2.1758 15.9294 2.1773 15.9298 2.17921 15.9298C2.18162 15.9298 2.18343 15.929 2.18484 15.9274C2.18645 15.9258 2.18725 15.9237 2.18725 15.921V15.9198L2.18122 15.9198ZM2.1997 15.915V15.9371H2.18725V15.9315C2.18564 15.9339 2.18373 15.9357 2.18162 15.9367C2.17972 15.9375 2.1773 15.9379 2.17439 15.9379C2.17037 15.9379 2.16716 15.9369 2.16475 15.9347C2.16234 15.9323 2.16113 15.9292 2.16113 15.9254C2.16113 15.9209 2.16254 15.9177 2.16555 15.9158C2.16877 15.9137 2.17359 15.9126 2.18002 15.9126H2.18725V15.9114C2.18725 15.9096 2.18645 15.9082 2.18484 15.9073C2.18343 15.9063 2.18122 15.9057 2.17801 15.9057C2.1753 15.9057 2.17278 15.906 2.17037 15.9065C2.16816 15.9071 2.16616 15.908 2.16435 15.909V15.8997C2.16696 15.8989 2.16967 15.8984 2.17238 15.8981C2.17499 15.8979 2.17761 15.8977 2.18002 15.8977C2.18695 15.8977 2.19187 15.8991 2.19488 15.9017C2.1981 15.9044 2.1997 15.9089 2.1997 15.915Z" fill="#25DEB0"/>
</g>
<g id="b">
<path id="Vector_8" d="M2.22454 15.8877V15.8985H2.23739V15.9074H2.22454V15.9239C2.22454 15.9255 2.22474 15.9267 2.22534 15.9275C2.22614 15.9281 2.22755 15.9283 2.22976 15.9283H2.23619V15.9371H2.22574C2.22092 15.9371 2.21741 15.9362 2.2153 15.9343C2.21339 15.9322 2.21248 15.9287 2.21248 15.9239V15.9074H2.20605V15.8985H2.21248V15.8877L2.22454 15.8877Z" fill="#25DEB0"/>
</g>
<g id="a_2">
<path id="Vector_9" d="M2.28317 15.9178V15.9214H2.25464C2.25484 15.9241 2.25585 15.9262 2.25746 15.9278C2.25926 15.9292 2.26188 15.9298 2.26509 15.9298C2.2677 15.9298 2.27041 15.9294 2.27313 15.9286C2.27574 15.9278 2.27855 15.9268 2.28156 15.9254V15.9347C2.27855 15.9358 2.27564 15.9366 2.27272 15.9371C2.26971 15.9376 2.2668 15.9379 2.26388 15.9379C2.25685 15.9379 2.25153 15.9362 2.24781 15.9327C2.244 15.9292 2.24219 15.9242 2.24219 15.9178C2.24219 15.9117 2.244 15.9068 2.24781 15.9033C2.25153 15.8996 2.25675 15.8977 2.26348 15.8977C2.26931 15.8977 2.27403 15.8996 2.27754 15.9033C2.28126 15.9068 2.28317 15.9117 2.28317 15.9178ZM2.27071 15.9138C2.27071 15.9114 2.27001 15.9096 2.26871 15.9082C2.2673 15.9065 2.26549 15.9057 2.26308 15.9057C2.26087 15.9057 2.25906 15.9064 2.25746 15.9077C2.25585 15.9092 2.25484 15.9112 2.25464 15.9138L2.27071 15.9138Z" fill="#25DEB0"/>
</g>
<g id="j">
<path id="Vector_10" d="M2.31897 15.9043V15.8838H2.33142V15.9372H2.31897V15.9316C2.31706 15.934 2.31505 15.9358 2.31294 15.9368C2.31103 15.9376 2.30872 15.938 2.30611 15.938C2.30149 15.938 2.29767 15.9362 2.29446 15.9324C2.29145 15.9287 2.29004 15.9239 2.29004 15.9179C2.29004 15.9121 2.29145 15.9073 2.29446 15.9035C2.29767 15.8998 2.30149 15.8979 2.30611 15.8979C2.30872 15.8979 2.31103 15.8985 2.31294 15.8995C2.31505 15.9006 2.31706 15.9022 2.31897 15.9043ZM2.31093 15.9292C2.31334 15.9292 2.31515 15.9283 2.31656 15.9264C2.31816 15.9246 2.31897 15.9218 2.31897 15.9179C2.31897 15.9145 2.31816 15.9118 2.31656 15.9099C2.31515 15.9078 2.31334 15.9067 2.31093 15.9067C2.30822 15.9067 2.30621 15.9078 2.30491 15.9099C2.3035 15.9118 2.3029 15.9145 2.3029 15.9179C2.3029 15.9218 2.3035 15.9246 2.30491 15.9264C2.30621 15.9283 2.30822 15.9292 2.31093 15.9292Z" fill="#25DEB0"/>
</g>
<g id="i">
<path id="Vector_11" d="M2.38866 15.9289C2.39107 15.9289 2.39287 15.928 2.39428 15.9261C2.39589 15.9243 2.39669 15.9215 2.39669 15.9177C2.39669 15.9143 2.39589 15.9116 2.39428 15.9097C2.39287 15.9076 2.39107 15.9064 2.38866 15.9064C2.38594 15.9064 2.38383 15.9076 2.38223 15.9097C2.38082 15.9116 2.38022 15.9143 2.38022 15.9177C2.38022 15.9215 2.38082 15.9243 2.38223 15.9261C2.38383 15.928 2.38594 15.9289 2.38866 15.9289ZM2.38022 15.904C2.38203 15.9019 2.38393 15.9003 2.38584 15.8992C2.38795 15.8982 2.39036 15.8976 2.39307 15.8976C2.3979 15.8976 2.40171 15.8995 2.40473 15.9032C2.40764 15.907 2.40915 15.9119 2.40915 15.9177C2.40915 15.9236 2.40764 15.9284 2.40473 15.9322C2.40171 15.936 2.3979 15.9378 2.39307 15.9378C2.39036 15.9378 2.38795 15.9374 2.38584 15.9366C2.38393 15.9356 2.38203 15.9338 2.38022 15.9314V15.937H2.36816V15.8835H2.38022V15.904Z" fill="#25DEB0"/>
</g>
<g id="h">
<path id="Vector_12" d="M2.41309 15.8984H2.42554L2.43559 15.9246L2.44443 15.8984H2.45688L2.44081 15.9406C2.4392 15.9448 2.43719 15.9479 2.43478 15.9495C2.43257 15.9513 2.42976 15.9523 2.42634 15.9523H2.41951V15.9442H2.42313C2.42524 15.9442 2.42675 15.9438 2.42755 15.943C2.42855 15.9424 2.42936 15.9412 2.42996 15.9394L2.43036 15.9386L2.41309 15.8984Z" fill="#25DEB0"/>
</g>
<g id="g">
<path id="Vector_13" d="M2.48242 15.8857H2.52943V15.8958H2.51256V15.9372H2.4993V15.8958H2.48242L2.48242 15.8857Z" fill="#25DEB0"/>
</g>
<g id="s">
<path id="Vector_14" d="M2.53613 15.8984H2.54819V15.937H2.53613V15.8984ZM2.53613 15.8835H2.54819V15.8936H2.53613V15.8835Z" fill="#25DEB0"/>
</g>
<g id="a_3">
<path id="Vector_15" d="M2.5986 15.9178V15.9214H2.57007C2.57027 15.9241 2.57128 15.9262 2.57289 15.9278C2.57469 15.9292 2.5773 15.9298 2.58052 15.9298C2.58313 15.9298 2.58584 15.9294 2.58855 15.9286C2.59117 15.9278 2.59398 15.9268 2.59699 15.9254V15.9347C2.59398 15.9358 2.59107 15.9366 2.58815 15.9371C2.58514 15.9376 2.58223 15.9379 2.57931 15.9379C2.57228 15.9379 2.56696 15.9362 2.56324 15.9327C2.55943 15.9292 2.55762 15.9242 2.55762 15.9178C2.55762 15.9117 2.55943 15.9068 2.56324 15.9033C2.56696 15.8996 2.57218 15.8977 2.57891 15.8977C2.58474 15.8977 2.58946 15.8996 2.59297 15.9033C2.59669 15.9068 2.5986 15.9117 2.5986 15.9178ZM2.58614 15.9138C2.58614 15.9114 2.58544 15.9096 2.58414 15.9082C2.58273 15.9065 2.58092 15.9057 2.57851 15.9057C2.5763 15.9057 2.57449 15.9064 2.57289 15.9077C2.57128 15.9092 2.57027 15.9112 2.57007 15.9138L2.58614 15.9138Z" fill="#25DEB0"/>
</g>
<g id="e">
<path id="Vector_16" d="M2.64697 15.9138V15.9371H2.63451V15.919C2.63451 15.9158 2.63431 15.9137 2.63411 15.9126C2.63411 15.9113 2.63391 15.9102 2.63371 15.9094C2.63311 15.9086 2.63251 15.9081 2.6317 15.9077C2.6309 15.9072 2.62989 15.9069 2.62889 15.9069C2.62618 15.9069 2.62407 15.9081 2.62246 15.9102C2.62105 15.9121 2.62045 15.9148 2.62045 15.9182V15.9371H2.6084V15.8985H2.62045V15.9041C2.62226 15.902 2.62427 15.9004 2.62648 15.8993C2.62859 15.8983 2.6309 15.8977 2.63331 15.8977C2.63783 15.8977 2.64114 15.8991 2.64335 15.9017C2.64576 15.9044 2.64697 15.9085 2.64697 15.9138Z" fill="#25DEB0"/>
</g>
<g id="f_2">
<path id="Vector_17" d="M2.67536 15.9198C2.67265 15.9198 2.67064 15.9202 2.66934 15.921C2.66793 15.9218 2.66733 15.9232 2.66733 15.925C2.66733 15.9266 2.66783 15.9278 2.66893 15.9286C2.66994 15.9294 2.67145 15.9298 2.67335 15.9298C2.67576 15.9298 2.67757 15.929 2.67898 15.9274C2.68059 15.9258 2.68139 15.9237 2.68139 15.921V15.9198L2.67536 15.9198ZM2.69384 15.915V15.9371H2.68139V15.9315C2.67978 15.9339 2.67787 15.9357 2.67576 15.9367C2.67386 15.9375 2.67145 15.9379 2.66853 15.9379C2.66451 15.9379 2.6613 15.9369 2.65889 15.9347C2.65648 15.9323 2.65527 15.9292 2.65527 15.9254C2.65527 15.9209 2.65668 15.9177 2.65969 15.9158C2.66291 15.9137 2.66773 15.9126 2.67416 15.9126H2.68139V15.9114C2.68139 15.9096 2.68059 15.9082 2.67898 15.9073C2.67757 15.9063 2.67536 15.9057 2.67215 15.9057C2.66944 15.9057 2.66693 15.906 2.66451 15.9065C2.6623 15.9071 2.6603 15.908 2.65849 15.909V15.8997C2.6611 15.8989 2.66381 15.8984 2.66652 15.8981C2.66913 15.8979 2.67175 15.8977 2.67416 15.8977C2.68109 15.8977 2.68601 15.8991 2.68902 15.9017C2.69224 15.9044 2.69384 15.9089 2.69384 15.915Z" fill="#25DEB0"/>
</g>
<g id="e_2">
<path id="Vector_18" d="M2.74463 15.9138V15.9371H2.73217V15.919C2.73217 15.9158 2.73197 15.9137 2.73177 15.9126C2.73177 15.9113 2.73157 15.9102 2.73137 15.9094C2.73076 15.9086 2.73016 15.9081 2.72936 15.9077C2.72855 15.9072 2.72755 15.9069 2.72655 15.9069C2.72383 15.9069 2.72172 15.9081 2.72012 15.9102C2.71871 15.9121 2.71811 15.9148 2.71811 15.9182V15.9371H2.70605V15.8985H2.71811V15.9041C2.71992 15.902 2.72193 15.9004 2.72414 15.8993C2.72624 15.8983 2.72855 15.8977 2.73097 15.8977C2.73549 15.8977 2.7388 15.8991 2.74101 15.9017C2.74342 15.9044 2.74463 15.9085 2.74463 15.9138Z" fill="#25DEB0"/>
</g>
<g id="r">
<path id="Vector_19" d="M2.05552 15.9539V15.9619H2.04869C2.04679 15.9619 2.04548 15.9623 2.04468 15.9631C2.04407 15.9637 2.04387 15.9647 2.04387 15.9663V15.9687H2.05432V15.9776H2.04387V16.0073H2.03182V15.9776H2.02539V15.9687H2.03182V15.9663C2.03182 15.9621 2.03282 15.959 2.03503 15.9571C2.03744 15.955 2.04106 15.9539 2.04588 15.9539L2.05552 15.9539Z" fill="#25DEB0"/>
</g>
<g id="c_2">
<path id="Vector_20" d="M2.08907 15.9793C2.08797 15.9788 2.08686 15.9785 2.08586 15.9785C2.08475 15.9783 2.08365 15.9781 2.08265 15.9781C2.07943 15.9781 2.07682 15.9792 2.07501 15.9813C2.0734 15.9832 2.0726 15.986 2.0726 15.9897V16.0074H2.06055V15.9688H2.0726V15.9752C2.07421 15.9728 2.07592 15.9711 2.07782 15.97C2.07993 15.9687 2.08244 15.968 2.08546 15.968H2.08666C2.08717 15.968 2.08797 15.9682 2.08907 15.9684L2.08907 15.9793Z" fill="#25DEB0"/>
</g>
<g id="d">
<path id="Vector_21" d="M2.11367 15.9769C2.11095 15.9769 2.10884 15.9779 2.10724 15.9797C2.10583 15.9816 2.10523 15.9844 2.10523 15.9881C2.10523 15.9919 2.10583 15.9948 2.10724 15.9969C2.10884 15.9989 2.11095 15.9998 2.11367 15.9998C2.11628 15.9998 2.11829 15.9989 2.11969 15.9969C2.1213 15.9948 2.1221 15.9919 2.1221 15.9881C2.1221 15.9844 2.1213 15.9816 2.11969 15.9797C2.11829 15.9779 2.11628 15.9769 2.11367 15.9769ZM2.11367 15.968C2.1203 15.968 2.12552 15.9699 2.12934 15.9736C2.13305 15.9772 2.13496 15.982 2.13496 15.9881C2.13496 15.9945 2.13305 15.9996 2.12934 16.003C2.12552 16.0065 2.1203 16.0082 2.11367 16.0082C2.10694 16.0082 2.10171 16.0065 2.098 16.003C2.09448 15.9996 2.09277 15.9945 2.09277 15.9881C2.09277 15.982 2.09448 15.9772 2.098 15.9736C2.10171 15.9699 2.10694 15.968 2.11367 15.968Z" fill="#25DEB0"/>
</g>
<g id="q">
<path id="Vector_22" d="M2.17891 15.9752C2.18052 15.9728 2.18233 15.9711 2.18454 15.97C2.18665 15.9687 2.18906 15.968 2.19177 15.968C2.19599 15.968 2.1994 15.9694 2.20181 15.972C2.20422 15.9747 2.20543 15.9788 2.20543 15.9841V16.0074H2.19297V15.9873V15.9865V15.9849C2.19297 15.9823 2.19257 15.9804 2.19177 15.9793C2.19097 15.978 2.18956 15.9773 2.18775 15.9773C2.18554 15.9773 2.18383 15.9783 2.18253 15.9801C2.18112 15.982 2.18052 15.9848 2.18052 15.9885V16.0074H2.16806V15.9873C2.16806 15.9831 2.16766 15.9804 2.16686 15.9793C2.16626 15.978 2.16505 15.9773 2.16324 15.9773C2.16083 15.9773 2.15892 15.9784 2.15762 15.9805C2.15621 15.9824 2.15561 15.9851 2.15561 15.9885V16.0074H2.14355V15.9688H2.15561V15.9744C2.15722 15.9723 2.15892 15.9707 2.16083 15.9696C2.16294 15.9686 2.16505 15.968 2.16726 15.968C2.16987 15.968 2.17218 15.9687 2.17409 15.97C2.1762 15.9714 2.17781 15.9731 2.17891 15.9752Z" fill="#25DEB0"/>
</g>
<g id="b_2">
<path id="Vector_23" d="M2.25481 15.958V15.9689H2.26767V15.9777H2.25481V15.9942C2.25481 15.9958 2.25501 15.997 2.25561 15.9978C2.25642 15.9984 2.25782 15.9986 2.26003 15.9986H2.26646V16.0074H2.25602C2.25119 16.0074 2.24768 16.0065 2.24557 16.0046C2.24366 16.0025 2.24276 15.999 2.24276 15.9942V15.9777H2.23633V15.9689H2.24276V15.958L2.25481 15.958Z" fill="#25DEB0"/>
</g>
<g id="p">
<path id="Vector_24" d="M2.31396 15.984V16.0073H2.30151V15.9896C2.30151 15.9862 2.30131 15.9839 2.30111 15.9828C2.30111 15.9815 2.3009 15.9804 2.3007 15.9796C2.3001 15.9788 2.2995 15.9783 2.29869 15.978C2.29789 15.9775 2.29689 15.9772 2.29588 15.9772C2.29317 15.9772 2.29106 15.9783 2.28945 15.9804C2.28805 15.9823 2.28744 15.985 2.28744 15.9884V16.0073H2.27539V15.9539H2.28744V15.9743C2.28925 15.9722 2.29126 15.9706 2.29347 15.9695C2.29558 15.9685 2.29789 15.9679 2.3003 15.9679C2.30482 15.9679 2.30814 15.9693 2.31035 15.9719C2.31276 15.9746 2.31396 15.9787 2.31396 15.984Z" fill="#25DEB0"/>
</g>
<g id="a_4">
<path id="Vector_25" d="M2.36325 15.9881V15.9917H2.33472C2.33492 15.9944 2.33593 15.9965 2.33753 15.9982C2.33934 15.9996 2.34195 16.0002 2.34517 16.0002C2.34778 16.0002 2.35049 15.9998 2.3532 15.999C2.35581 15.9982 2.35863 15.9971 2.36164 15.9957V16.005C2.35863 16.0061 2.35571 16.0069 2.3528 16.0074C2.34979 16.0079 2.34687 16.0082 2.34396 16.0082C2.33693 16.0082 2.33161 16.0065 2.32789 16.003C2.32407 15.9996 2.32227 15.9945 2.32227 15.9881C2.32227 15.982 2.32407 15.9772 2.32789 15.9736C2.33161 15.9699 2.33683 15.968 2.34356 15.968C2.34939 15.968 2.35411 15.9699 2.35762 15.9736C2.36134 15.9772 2.36325 15.982 2.36325 15.9881ZM2.35079 15.9841C2.35079 15.9817 2.35009 15.9799 2.34878 15.9785C2.34738 15.9769 2.34557 15.9761 2.34316 15.9761C2.34095 15.9761 2.33914 15.9768 2.33753 15.9781C2.33593 15.9795 2.33492 15.9815 2.33472 15.9841L2.35079 15.9841Z" fill="#25DEB0"/>
</g>
<g id="o">
<path id="Vector_26" d="M2.39746 15.9561H2.41233L2.43081 15.9914V15.9561H2.44326V16.0075H2.4288L2.40992 15.9721V16.0075H2.39746L2.39746 15.9561Z" fill="#25DEB0"/>
</g>
<g id="d_2">
<path id="Vector_27" d="M2.47402 15.9769C2.47131 15.9769 2.4692 15.9779 2.46759 15.9797C2.46618 15.9816 2.46558 15.9844 2.46558 15.9881C2.46558 15.9919 2.46618 15.9948 2.46759 15.9969C2.4692 15.9989 2.47131 15.9998 2.47402 15.9998C2.47663 15.9998 2.47864 15.9989 2.48004 15.9969C2.48165 15.9948 2.48246 15.9919 2.48246 15.9881C2.48246 15.9844 2.48165 15.9816 2.48004 15.9797C2.47864 15.9779 2.47663 15.9769 2.47402 15.9769ZM2.47402 15.968C2.48065 15.968 2.48587 15.9699 2.48969 15.9736C2.4934 15.9772 2.49531 15.982 2.49531 15.9881C2.49531 15.9945 2.4934 15.9996 2.48969 16.003C2.48587 16.0065 2.48065 16.0082 2.47402 16.0082C2.46729 16.0082 2.46206 16.0065 2.45835 16.003C2.45483 15.9996 2.45312 15.9945 2.45312 15.9881C2.45312 15.982 2.45483 15.9772 2.45835 15.9736C2.46206 15.9699 2.46729 15.968 2.47402 15.968Z" fill="#25DEB0"/>
</g>
<g id="n">
<path id="Vector_28" d="M2.50391 15.9925V15.9688H2.51596V15.9728V15.9808V15.9868V15.9937C2.51616 15.9951 2.51656 15.996 2.51717 15.9965C2.51767 15.9973 2.51837 15.998 2.51917 15.9985C2.51998 15.9988 2.52088 15.9989 2.52199 15.9989C2.5244 15.9989 2.52621 15.998 2.52761 15.9961C2.52922 15.9943 2.53002 15.9916 2.53002 15.988V15.9688H2.54248V16.0073H2.53002V16.0017C2.52811 16.0041 2.52611 16.0059 2.524 16.0069C2.52209 16.0077 2.51998 16.0081 2.51757 16.0081C2.51295 16.0081 2.50953 16.0068 2.50712 16.0041C2.50491 16.0015 2.50391 15.9976 2.50391 15.9925Z" fill="#25DEB0"/>
</g>
<g id="e_3">
<path id="Vector_29" d="M2.59326 15.9841V16.0074H2.5808V15.9893C2.5808 15.9861 2.5806 15.984 2.5804 15.9829C2.5804 15.9816 2.5802 15.9805 2.58 15.9797C2.5794 15.9789 2.57879 15.9784 2.57799 15.9781C2.57719 15.9776 2.57618 15.9773 2.57518 15.9773C2.57247 15.9773 2.57036 15.9784 2.56875 15.9805C2.56734 15.9824 2.56674 15.9851 2.56674 15.9885V16.0074H2.55469V15.9688H2.56674V15.9744C2.56855 15.9723 2.57056 15.9707 2.57277 15.9696C2.57488 15.9686 2.57719 15.968 2.5796 15.968C2.58412 15.968 2.58743 15.9694 2.58964 15.972C2.59205 15.9747 2.59326 15.9788 2.59326 15.9841Z" fill="#25DEB0"/>
</g>
<g id="m">
<path id="Vector_30" d="M2.62988 15.9561H2.65198C2.65841 15.9561 2.66333 15.9576 2.66685 15.9605C2.67026 15.9635 2.67207 15.9676 2.67207 15.9729C2.67207 15.9784 2.67026 15.9825 2.66685 15.9854C2.66333 15.9884 2.65841 15.9898 2.65198 15.9898H2.64314V16.0075H2.62988L2.62988 15.9561ZM2.64314 15.9657V15.9802H2.65037C2.65299 15.9802 2.65499 15.9797 2.6564 15.9786C2.65771 15.9772 2.65841 15.9753 2.65841 15.9729C2.65841 15.9705 2.65771 15.9688 2.6564 15.9677C2.65499 15.9664 2.65299 15.9657 2.65037 15.9657L2.64314 15.9657Z" fill="#25DEB0"/>
</g>
<g id="c_3">
<path id="Vector_31" d="M2.70919 15.9793C2.70809 15.9788 2.70698 15.9785 2.70598 15.9785C2.70487 15.9783 2.70377 15.9781 2.70276 15.9781C2.69955 15.9781 2.69694 15.9792 2.69513 15.9813C2.69352 15.9832 2.69272 15.986 2.69272 15.9897V16.0074H2.68066V15.9688H2.69272V15.9752C2.69432 15.9728 2.69603 15.9711 2.69794 15.97C2.70005 15.9687 2.70256 15.968 2.70557 15.968H2.70678C2.70728 15.968 2.70809 15.9682 2.70919 15.9684L2.70919 15.9793Z" fill="#25DEB0"/>
</g>
<g id="d_3">
<path id="Vector_32" d="M2.73378 15.9769C2.73107 15.9769 2.72896 15.9779 2.72735 15.9797C2.72595 15.9816 2.72535 15.9844 2.72535 15.9881C2.72535 15.9919 2.72595 15.9948 2.72735 15.9969C2.72896 15.9989 2.73107 15.9998 2.73378 15.9998C2.7364 15.9998 2.7384 15.9989 2.73981 15.9969C2.74142 15.9948 2.74222 15.9919 2.74222 15.9881C2.74222 15.9844 2.74142 15.9816 2.73981 15.9797C2.7384 15.9779 2.7364 15.9769 2.73378 15.9769ZM2.73378 15.968C2.74041 15.968 2.74564 15.9699 2.74945 15.9736C2.75317 15.9772 2.75508 15.982 2.75508 15.9881C2.75508 15.9945 2.75317 15.9996 2.74945 16.003C2.74564 16.0065 2.74041 16.0082 2.73378 16.0082C2.72705 16.0082 2.72183 16.0065 2.71811 16.003C2.7146 15.9996 2.71289 15.9945 2.71289 15.9881C2.71289 15.982 2.7146 15.9772 2.71811 15.9736C2.72183 15.9699 2.72705 15.968 2.73378 15.968Z" fill="#25DEB0"/>
</g>
<g id="l">
<path id="Vector_33" d="M2.76332 15.9687H2.77537V16.0065C2.77537 16.0118 2.77417 16.0158 2.77176 16.0185C2.76935 16.0212 2.76573 16.0226 2.76091 16.0226H2.75488V16.0145H2.75689C2.7593 16.0145 2.76091 16.0139 2.76171 16.0129C2.76272 16.0118 2.76332 16.0097 2.76332 16.0065L2.76332 15.9687ZM2.76332 15.9539H2.77537V15.9639H2.76332V15.9539Z" fill="#25DEB0"/>
</g>
<g id="a_5">
<path id="Vector_34" d="M2.82614 15.9881V15.9917H2.79761C2.79781 15.9944 2.79882 15.9965 2.80042 15.9982C2.80223 15.9996 2.80484 16.0002 2.80806 16.0002C2.81067 16.0002 2.81338 15.9998 2.81609 15.999C2.81871 15.9982 2.82152 15.9971 2.82453 15.9957V16.005C2.82152 16.0061 2.8186 16.0069 2.81569 16.0074C2.81268 16.0079 2.80977 16.0082 2.80685 16.0082C2.79982 16.0082 2.7945 16.0065 2.79078 16.003C2.78696 15.9996 2.78516 15.9945 2.78516 15.9881C2.78516 15.982 2.78696 15.9772 2.79078 15.9736C2.7945 15.9699 2.79972 15.968 2.80645 15.968C2.81228 15.968 2.817 15.9699 2.82051 15.9736C2.82423 15.9772 2.82614 15.982 2.82614 15.9881ZM2.81368 15.9841C2.81368 15.9817 2.81298 15.9799 2.81167 15.9785C2.81027 15.9769 2.80846 15.9761 2.80605 15.9761C2.80384 15.9761 2.80203 15.9768 2.80042 15.9781C2.79882 15.9795 2.79781 15.9815 2.79761 15.9841L2.81368 15.9841Z" fill="#25DEB0"/>
</g>
<g id="k">
<path id="Vector_35" d="M2.86676 15.97V15.9801C2.86515 15.9791 2.86334 15.9783 2.86153 15.9777C2.85993 15.9772 2.85812 15.9769 2.85631 15.9769C2.8531 15.9769 2.85039 15.978 2.84828 15.9801C2.84637 15.982 2.84546 15.9847 2.84546 15.9881C2.84546 15.9919 2.84637 15.9948 2.84828 15.9969C2.85039 15.9989 2.8531 15.9998 2.85631 15.9998C2.85842 15.9998 2.86033 15.9996 2.86194 15.999C2.86374 15.9982 2.86535 15.9972 2.86676 15.9961V16.0062C2.86485 16.007 2.86284 16.0075 2.86073 16.0078C2.85882 16.008 2.85691 16.0082 2.85511 16.0082C2.84807 16.0082 2.84265 16.0065 2.83863 16.003C2.83482 15.9996 2.83301 15.9945 2.83301 15.9881C2.83301 15.982 2.83482 15.9772 2.83863 15.9736C2.84265 15.9699 2.84807 15.968 2.85511 15.968C2.85691 15.968 2.85882 15.9683 2.86073 15.9688C2.86284 15.9691 2.86485 15.9695 2.86676 15.97Z" fill="#25DEB0"/>
</g>
<g id="b_3">
<path id="Vector_36" d="M2.89055 15.958V15.9689H2.90341V15.9777H2.89055V15.9942C2.89055 15.9958 2.89075 15.997 2.89136 15.9978C2.89216 15.9984 2.89357 15.9986 2.89578 15.9986H2.9022V16.0074H2.89176C2.88694 16.0074 2.88342 16.0065 2.88131 16.0046C2.8794 16.0025 2.8785 15.999 2.8785 15.9942V15.9777H2.87207V15.9689H2.8785V15.958L2.89055 15.958Z" fill="#25DEB0"/>
</g>
</g>
</g>
</svg>
