<svg width="122" height="116" viewBox="0 0 122 116" fill="none" xmlns="http://www.w3.org/2000/svg">
<g id="Group">
<path id="Vector" d="M121.187 43.9025C120.932 43.1378 120.294 42.6274 119.53 42.5003L80.1426 36.7645L62.5519 1.07385C61.9144 -0.328328 59.6204 -0.328328 58.9829 1.07385L41.3922 36.7645L1.87757 42.5003C1.11291 42.6274 0.475395 43.1378 0.220234 43.9025C-0.0349268 44.6671 0.220235 45.4318 0.729715 45.9421L29.2822 73.7299L22.5265 112.99C22.3994 113.754 22.6537 114.519 23.2912 114.901C23.9287 115.411 24.6934 115.411 25.458 115.028L60.7663 96.5468L96.0745 115.029C96.3297 115.156 96.712 115.284 96.9672 115.284C97.3495 115.284 97.8599 115.157 98.1142 114.902C98.7517 114.393 99.0069 113.755 98.8789 112.99L92.1231 73.7308L120.676 45.943C121.313 45.4327 121.44 44.5409 121.186 43.9034L121.187 43.9025ZM88.6831 71.5627C88.1736 72.0722 88.0456 72.7097 88.0456 73.3472L94.2917 109.675L61.6602 92.4668C61.405 92.3396 61.0227 92.2116 60.7675 92.2116C60.3852 92.2116 60.13 92.3387 59.8748 92.4668L27.2433 109.675L33.4894 73.3472C33.6166 72.7097 33.3623 72.0722 32.8519 71.5627L6.59379 45.9419L42.9218 40.5883C43.5593 40.4612 44.1968 40.0789 44.4511 39.4413L60.7668 6.42747L77.0826 39.4413C77.3378 40.0789 77.9753 40.4612 78.6119 40.5883L115.067 45.9419L88.6831 71.5627Z" fill="#25DEB0"/>
</g>
</svg>
