<svg width="20" height="20" viewBox="0 0 20 20" fill="none" xmlns="http://www.w3.org/2000/svg">
<path fill-rule="evenodd" clip-rule="evenodd" d="M4.58331 4.16659C4.58331 3.01599 5.51605 2.08325 6.66665 2.08325H12.5C13.6506 2.08325 14.5833 3.01599 14.5833 4.16659V16.6666C14.5833 17.8172 13.6506 18.7499 12.5 18.7499H6.66665C5.51605 18.7499 4.58331 17.8172 4.58331 16.6666V4.16659ZM6.66665 2.91659C5.97629 2.91659 5.41665 3.47623 5.41665 4.16659V16.6666C5.41665 17.3569 5.97629 17.9166 6.66665 17.9166H12.5C13.1903 17.9166 13.75 17.3569 13.75 16.6666V4.16659C13.75 3.47623 13.1903 2.91659 12.5 2.91659H6.66665Z" fill="#848484"/>
<path fill-rule="evenodd" clip-rule="evenodd" d="M7.91667 15.8333C7.68655 15.8333 7.5 16.0198 7.5 16.2499C7.5 16.48 7.68655 16.6666 7.91667 16.6666H11.25C11.4801 16.6666 11.6667 16.48 11.6667 16.2499C11.6667 16.0198 11.4801 15.8333 11.25 15.8333H7.91667ZM6.31796 2.27186C6.39493 2.15418 6.52605 2.08325 6.66667 2.08325H12.5C12.6406 2.08325 12.7717 2.15418 12.8488 2.27186C12.9257 2.38954 12.9381 2.5381 12.8818 2.66693L12.5895 3.33496C12.2578 4.09327 11.5085 4.58325 10.6808 4.58325H8.48583C7.65816 4.58325 6.90896 4.09327 6.5772 3.33496L6.28493 2.66693C6.22858 2.5381 6.24099 2.38954 6.31796 2.27186ZM7.30376 2.91659L7.34067 3.00094C7.53972 3.45593 7.98924 3.74992 8.48583 3.74992H10.6808C11.1774 3.74992 11.6269 3.45593 11.826 3.00094L11.8629 2.91659H7.30376ZM10.122 7.20529C10.2848 7.04257 10.5486 7.04257 10.7113 7.20529L12.378 8.87192C12.5407 9.03467 12.5407 9.2985 12.378 9.46125L10.7113 11.1279C10.5486 11.2906 10.2848 11.2906 10.122 11.1279C9.95933 10.9652 9.95933 10.7013 10.122 10.5386L11.4941 9.16659L10.122 7.79454C9.95933 7.63183 9.95933 7.36801 10.122 7.20529Z" fill="#848484"/>
<path fill-rule="evenodd" clip-rule="evenodd" d="M7.08331 10.8333C7.08331 9.68275 8.01605 8.75 9.16665 8.75H11.6666C11.8967 8.75 12.0833 8.93658 12.0833 9.16667C12.0833 9.39675 11.8967 9.58333 11.6666 9.58333H9.16665C8.47631 9.58333 7.91665 10.143 7.91665 10.8333V13.3333C7.91665 13.5634 7.7301 13.75 7.49998 13.75C7.26986 13.75 7.08331 13.5634 7.08331 13.3333V10.8333Z" fill="#848484"/>
</svg>
