<svg width="15" height="14" viewBox="0 0 15 14" fill="none" xmlns="http://www.w3.org/2000/svg">
<g id="Frame" clip-path="url(#clip0_501_10170)">
<g id="Group">
<path id="Vector" d="M6.89648 0.587809C7.00586 0.587809 7.1084 0.617431 7.2041 0.676676C7.2998 0.735921 7.37044 0.811116 7.41602 0.902262L9.08398 4.27922L12.8164 4.82609C12.9258 4.84432 13.0215 4.88989 13.1035 4.96281C13.1855 5.03573 13.2448 5.12459 13.2812 5.22941C13.3177 5.33423 13.3223 5.44132 13.2949 5.5507C13.2676 5.66007 13.2129 5.75122 13.1309 5.82414L10.4375 8.44914L11.0801 12.1679C11.0983 12.2773 11.0869 12.3821 11.0459 12.4823C11.0049 12.5826 10.9388 12.6646 10.8477 12.7284C10.7565 12.7922 10.6562 12.8287 10.5469 12.8378C10.4375 12.8469 10.3327 12.8287 10.2324 12.7831L6.89648 11.0194L3.56055 12.7831C3.46029 12.8287 3.35547 12.8469 3.24609 12.8378C3.13672 12.8287 3.03646 12.7922 2.94531 12.7284C2.85417 12.6646 2.78809 12.5826 2.74707 12.4823C2.70605 12.3821 2.69466 12.2773 2.71289 12.1679L3.35547 8.44914L0.662109 5.82414C0.580078 5.75122 0.525391 5.66007 0.498047 5.5507C0.470703 5.44132 0.47526 5.33423 0.511719 5.22941C0.548177 5.12459 0.607422 5.03573 0.689453 4.96281C0.771484 4.88989 0.867187 4.84432 0.976562 4.82609L4.70898 4.27922L6.37695 0.902262C6.42253 0.811116 6.49316 0.735921 6.58887 0.676676C6.68457 0.617431 6.78711 0.587809 6.89648 0.587809ZM6.89648 2.4882L5.61133 5.07218C5.57487 5.16333 5.5179 5.23625 5.44043 5.29093C5.36296 5.34562 5.27409 5.38208 5.17383 5.40031L2.31641 5.81047L4.38086 7.8339C4.45378 7.89771 4.50618 7.97518 4.53809 8.06633C4.56999 8.15747 4.57682 8.24862 4.55859 8.33976L4.06641 11.1972L6.62305 9.84367C6.70508 9.7981 6.79622 9.77531 6.89648 9.77531C6.99674 9.77531 7.08789 9.7981 7.16992 9.84367L9.72656 11.1972L9.23437 8.33976C9.21615 8.24862 9.22298 8.15747 9.25488 8.06633C9.28678 7.97518 9.33919 7.89771 9.41211 7.8339L11.4766 5.81047L8.61914 5.40031C8.51888 5.38208 8.43001 5.34562 8.35254 5.29093C8.27506 5.23625 8.2181 5.16333 8.18164 5.07218L6.89648 2.4882Z" fill="white"/>
</g>
</g>
<defs>
<clipPath id="clip0_501_10170">
<rect width="14" height="14" fill="white" transform="matrix(1 0 0 -1 0.480469 14)"/>
</clipPath>
</defs>
</svg>
