<svg width="20" height="20" viewBox="0 0 20 20" fill="none" xmlns="http://www.w3.org/2000/svg">
<path d="M2.44208 14.5347C2.44208 16.2043 3.7956 17.5579 5.46526 17.5579L14.5348 17.5579C16.2044 17.5579 17.558 16.2043 17.558 14.5347L17.558 5.46515C17.558 3.79553 16.2044 2.44197 14.5348 2.44197L5.46525 2.44197C3.7956 2.44197 2.44208 3.79553 2.44208 5.46515L2.44208 14.5347Z" stroke="#848484" stroke-width="0.5" stroke-linejoin="round"/>
<path d="M8.66544 7.02482C8.78349 6.55245 9.20787 6.22111 9.69475 6.22111C10.2808 6.22111 10.7558 6.69613 10.7558 7.28217L10.7558 8.86639C10.7558 9.07506 10.925 9.24429 11.1337 9.24429L12.3725 9.24429C13.3066 9.24429 14.0171 10.083 13.8636 11.0044L13.6116 12.516C13.4901 13.2448 12.8595 13.7791 12.1206 13.7791L9.62212 13.7791C8.78727 13.7791 8.11053 13.1023 8.11053 12.2675L8.11053 9.43036C8.11053 9.30679 8.12569 9.18367 8.15566 9.06373L8.66544 7.02482Z" stroke="#848484" stroke-width="0.7" stroke-linejoin="round"/>
<path d="M8.11052 9.62197C8.11052 8.99585 7.60295 8.48828 6.97683 8.48828C6.35071 8.48828 5.84314 8.99585 5.84314 9.62197L5.84314 12.6452C5.84314 13.2713 6.35071 13.7788 6.97683 13.7788C7.60295 13.7788 8.11052 13.2713 8.11052 12.6451L8.11052 9.62197Z" stroke="#848484" stroke-width="0.7" stroke-linejoin="round"/>
</svg>
