<svg width="5" height="24" viewBox="0 0 5 24" fill="none" xmlns="http://www.w3.org/2000/svg">
<path d="M4.72994 0.935368L4.72994 17.299L0.191584 17.299L0.191586 0.935367L4.72994 0.935368ZM2.45011 19.4084C3.12482 19.4084 3.70366 19.6321 4.18661 20.0795C4.66246 20.5341 4.90039 21.0774 4.90039 21.7095C4.90039 22.3345 4.66246 22.8707 4.18661 23.3182C3.70366 23.7727 3.12482 24 2.45011 24C1.77539 24 1.20011 23.7727 0.724254 23.3182C0.2413 22.8707 -0.000177715 22.3345 -0.00017766 21.7095C-0.000177605 21.0774 0.2413 20.5341 0.724254 20.0795C1.20011 19.6321 1.77539 19.4084 2.45011 19.4084Z" fill="#131A26"/>
</svg>
