<svg width="18" height="18" viewBox="0 0 18 18" fill="none" xmlns="http://www.w3.org/2000/svg">
<g id="noun-verified-5142165 1">
<path id="Vector" fill-rule="evenodd" clip-rule="evenodd" d="M8.75037 13.1284C11.1684 13.1284 13.1287 11.1682 13.1287 8.75013C13.1287 6.332 11.1684 4.37183 8.75037 4.37183C6.33235 4.37183 4.37207 6.332 4.37207 8.75013C4.37207 11.1682 6.33235 13.1284 8.75037 13.1284ZM7.94126 10.1927C8.11239 10.3234 8.3532 10.3102 8.50907 10.1614L10.8039 7.97229C10.9788 7.80547 10.9855 7.52831 10.8185 7.35338C10.6516 7.17834 10.3744 7.17179 10.1995 7.33872L8.17524 9.26977L7.26468 8.57492C7.07244 8.42823 6.79772 8.46508 6.65104 8.65731C6.50434 8.84955 6.54119 9.12436 6.73343 9.27105L7.94126 10.1927Z" fill="#29C5A1"/>
</g>
</svg>
