<svg width="14" height="14" viewBox="0 0 14 14" fill="none" xmlns="http://www.w3.org/2000/svg">
<path d="M7.20972 0C8.12118 0 8.90242 0.325521 9.55347 0.976562C10.2045 1.6276 10.53 2.41536 10.53 3.33984C10.53 4.26432 10.2045 5.05208 9.55347 5.70312C8.90242 6.35417 8.12118 6.67969 7.20972 6.67969C6.29826 6.67969 5.51701 6.35417 4.86597 5.70312C4.21493 5.05208 3.8894 4.26432 3.8894 3.33984C3.8894 2.41536 4.21493 1.6276 4.86597 0.976562C5.51701 0.325521 6.29826 0 7.20972 0ZM7.20972 8.35938C8.40763 8.35938 9.52092 8.50911 10.5496 8.80859C11.5782 9.10807 12.392 9.51172 12.991 10.0195C13.5899 10.5273 13.8894 11.0807 13.8894 11.6797V13.3594H0.530029V11.6797C0.530029 11.0807 0.829508 10.5273 1.42847 10.0195C2.02743 9.51172 2.84123 9.10807 3.86987 8.80859C4.89852 8.50911 6.0118 8.35938 7.20972 8.35938Z" fill="#010712"/>
</svg>
