<svg width="17" height="16" viewBox="0 0 17 16" fill="none" xmlns="http://www.w3.org/2000/svg">
<g id="Frame" clip-path="url(#clip0_501_10196)">
<g id="Group">
<path id="Vector" d="M0.44043 5.32812V3.32812C0.44043 2.96354 0.570638 2.65104 0.831055 2.39062C1.09147 2.13021 1.40918 2 1.78418 2H11.1123C11.4769 2 11.7894 2.13021 12.0498 2.39062C12.3102 2.65104 12.4404 2.96354 12.4404 3.32812V4C12.8154 4 13.1331 4.13021 13.3936 4.39062C13.654 4.65104 13.7842 4.96354 13.7842 5.32812V12C13.7842 12.3646 13.654 12.6771 13.3936 12.9375C13.1331 13.1979 12.8154 13.3281 12.4404 13.3281H1.78418C1.40918 13.3281 1.09147 13.1979 0.831055 12.9375C0.570638 12.6771 0.44043 12.3646 0.44043 12V5.32812ZM1.78418 5.32812V12H12.4404V5.32812H1.78418ZM1.78418 4H11.1123V3.32812H1.78418V4ZM9.78418 8.32812C9.78418 8.05729 9.88053 7.82292 10.0732 7.625C10.266 7.42708 10.5003 7.32812 10.7764 7.32812C11.0524 7.32812 11.2894 7.42708 11.4873 7.625C11.6852 7.82292 11.7842 8.0599 11.7842 8.33594C11.7842 8.61198 11.6852 8.84635 11.4873 9.03906C11.2894 9.23177 11.0524 9.32812 10.7764 9.32812C10.5003 9.32812 10.266 9.23177 10.0732 9.03906C9.88053 8.84635 9.78418 8.60938 9.78418 8.32812Z" fill="white"/>
</g>
</g>
<defs>
<clipPath id="clip0_501_10196">
<rect width="16" height="16" fill="white" transform="matrix(1 0 0 -1 0.44043 16)"/>
</clipPath>
</defs>
</svg>
